<?xml version="1.0" encoding="UTF-8"?>
<svg xmlns="http://www.w3.org/2000/svg" width="126.9999981mm" height="45.8611104mm" version="1.1" viewBox="0 0 360 130">
  <title>LOGO_ORG_NL_RGB_COMPACT_BLAUW</title>
<defs>
    <style>
      .cls-1 {
        fill: #154273;
      }

      .cls-1, .cls-2 {
        stroke-width: 0px;
      }

      .cls-2 {
        fill: #fff;
      }
    </style>
  </defs>
  <g id="Beeldmerk">
    <g>
      <rect class="cls-1" x="160" width="40" height="80"/>
      <path class="cls-2" d="M180.7199997,61.8880005h-.6960007v-1.9280029h.6960007v1.9280029ZM183.8639999,53.376001h-.6960007v-1.9280029h.6960007v1.9280029ZM170.968,50.0480011c-.0559998,0-.4159996,0-.4159996.0720001s.168.0399994.4160004.0799988c.5599998.0959991.7760002.376001,1.168.376001.3519997,0,.7200005-.2399994.5760002-.7519989-.0239998-.0880005-.0720001-.0640015-.0879997-.0079987-.0559998.2320007-.3360001.3600006-.632.3600006-.3680016-.0000031-.4400017-.1280029-1.0240013-.1280029ZM167.1360001,51.976001c.0639999.0880005.7199997.9359985-.2879997,1.2640015-.0480003.0159973-.0559998.0559998.0080002.0880005.7440002.3119995,1.1040001-.2640015,1.1040001-.2640015.3759995.8640015-.2000008,1.3359985-.2000008,1.3359985.0800003.152002.4400002.4159973.9760002.5359985.2080002-.1119995.4959999-.3200012.6160004-.6400024,0,0,.1440002.376001.0160004.7359985,1.5199997.1359985,2.0559998-1.0799988,3.232-.8559998.032.0080017.0480003-.0159973.0480003-.047998,0-.752002-.4559998-2.1200012-1.9120003-2.4-1.4480003-.2799988-1.0559998-.8720001-1.0559998-.8720001.6080002-.023999.9599998.2399994.9599998.2399994.1120003-.1839996-.0480003-.376001-.0480003-.376001.0559998-.0720001.0879997-.3200012.0879997-.3200012-.6879997,0-.8639999-.1519989-.8639999-.1519989-.1040001-.4079987.1760002-.9839996,1.2-.3679993.2559998-.223999.232-.576001.232-.576001.0800003-.0399994.1279999-.1600006.1279999-.2079987,0-.1679993-.8159996-.623999-1.0239998-.6799988-.0480003-.2480011-.368-.6-1.3279999-.4720001-.4559998.0559998-.7839996-.0640015-.632-.3279999.0239998-.0480011-.0559998-.0559998-.0959999-.0079987-.1040001.1040009-.2480003.4.1440002.6.4400002.223999.4639999.6640015.4720001.7279999.0080002.0959991-.1040001.1040009-.1279999.0079987-.2-.7440002-1.2239998-.9040009-1.8239998-.5119995.032.4.4639999.6640015.6959999.6640015.1360001,0,.3199997-.1359985.3199997-.3200012,0-.0880005.0480003-.0799988.0720001-.0079987.0959999.2640015-.2959999.8160004-.8720001.4799988-.5919998.5920013-.3519997,1.3279999-.2959999,1.5920013.1040001.4800018-.1279999.9519989-.568.7360016-.0240002-.0080017-.048-.0159973-.048.0320007.007999.2880005.3999989.6320007.871999.3679993ZM170.4,48.9920013c-.2800003.3119995-.7279999.2399994-.8400002-.2720001.5760002-.0320007.8160004.023999.8400002.2720001ZM188.0559998,50.176001c-.2959991,0-.576001-.1279999-.6320007-.3600006-.0160004-.0559998-.0640015-.0799988-.0880005.0079987-.1440002.5119995.223999.7519989.576001.7519989.3920013,0,.6079987-.2799988,1.1679993-.376001.2480011-.0399994.4160004,0,.4160004-.0799988,0-.0720001-.3600006-.0720001-.4160004-.0720001-.5759979.0000031-.6559998.1280029-1.023999.1280029ZM193.7839996,51.5919983c0-.047998-.023999-.0400024-.0480011-.0320007-.4399994.2159973-.6720001-.247998-.5679993-.7359985.0559998-.2720001.2959991-1-.2959991-1.5920013-.5839996.3359985-.976001-.2160004-.8720001-.4799988.023999-.0720001.0720001-.0799988.0720001.0079987,0,.1839996.1839996.3200012.3200012.3200012.2320007,0,.6640015-.2640015.6959991-.6640015-.6-.3920013-1.623999-.2320007-1.823999.5119995-.023999.0959991-.1359985.0880005-.1279999-.0079987,0-.0640015.0320007-.5040009.4720001-.7279999.4-.2.2559998-.4959991.1440002-.6-.0399994-.0399994-.1279999-.0320007-.0959991.0079987.1519989.2640015-.176001.3839996-.623999.3279999-.9600006-.1279999-1.2720001.2320007-1.3279999.4720001-.2079987.0559998-1.023999.5119995-1.023999.6799988,0,.0480011.0480011.176001.1279999.2079987,0,0-.0160004.3440002.2320007.576001,1.0160004-.6160004,1.3040009-.0399994,1.2.3679993,0,0-.1839996.1440002-.8720001.1519989,0,0,.0320007.2480011.0880005.3200012,0,0-.1600006.2-.0480011.376001,0,0,.3519989-.2640015.9600006-.2399994,0,0,.3920013.5919983-1.0559998.8719971-1.4480011.2799988-1.9119995,1.647998-1.9119995,2.4,0,.0400024.0160004.0559998.0480011.047998,1.176001-.2159973,1.7119995,1,3.2320007.8559998-.1359985-.3599976.0160004-.7359985.0160004-.7359985.1200012.3200012.4079987.5359985.6160004.6400024.5440002-.1200012.8959991-.376001.976001-.5359985,0,0-.576001-.4719971-.2-1.3359985,0,0,.3600006.576001,1.1040009.2640015.0640015-.0320007.0480011-.0719971.0079987-.0880005-1.0079987-.3280029-.3519989-1.176001-.2880005-1.2640015.471991.2800049.871991-.0639954.871991-.3679993ZM190.4880005,48.7200012c-.1119995.5119995-.5600006.5839996-.8399994.2720001.023999-.2480011.2720001-.3040009.8399994-.2720001ZM179.7600006,40.1679993c0,.1279999.0559998.2399994.0960007.3040009.0880005.1279999.0720001.2.0320007.2399994s-.1119995.0559998-.2399994-.0320007c-.0639999-.0480011-.1759995-.0959991-.3039993-.0959991-.2160004,0-.3279999.1440002-.3279999.2640015s.1119995.2640015.3279999.2640015c.1279999,0,.2399994-.0559998.3039993-.0959991.1279999-.0880005.2-.0720001.2399994-.0320007s-.0160004.4799988-.0720001.8320007c-.3600006.0799988-.5360001.3679993-.5360001.5359985,0,.4399994.4639999.6880005.7440002.8399994.2720001-.1440002.7440002-.4.7440002-.8399994,0-.1679993-.1759995-.4640015-.5360001-.5359985-.0479996-.3440002-.1119995-.7920013-.0720001-.8320007s.1119995-.0559998.2399994.0320007c.0639999.0480011.1759995.0959991.3039993.0959991.2160004,0,.3279999-.1440002.3279999-.2640015s-.1119995-.2640015-.3279999-.2640015c-.1279999,0-.2399994.0559998-.3039993.0959991-.1279999.0880005-.2.0720001-.2399994.0320007s-.0559998-.1119995.0320007-.2399994c.0479996-.0640015.0960007-.176001.0960007-.3040009,0-.2160004-.1440002-.3279999-.2639999-.3279999-.1200043,0-.264003.1119995-.264003.3279999ZM180.0240005,43.4160004c-.2960007,0-.5360001.2399994-.5360001.5359985s.2399994.5359985.5360001.5359985.5360001-.2399994.5360001-.5359985-.2400009-.5359985-.5360001-.5359985ZM180.0240005,48.5440002c2.1360001,0,3.3360001.4079987,3.3360001.4079987.0080002-1.0799988.0080002-1.6799988.6240005-1.5920013-.3360001-.9040009,1.1199997-1.2640015,1.1199997-2.4399994,0-.776001-.5520004-.8640015-.7119995-.8640015-.4800003,0-.4080002.3119995-.8160004.3119995-.0479996,0-.1039993-.0160004-.1039993.023999,0,.1359985.1119995.3679993.3039993.3679993.2559998,0,.2559998-.2559998.4479996-.2559998.0800003,0,.2.0640015.2.3279999,0,.5040009-.3279999,1.0559998-.7199997,1.4880005-.0880005-.1200012-.2080002-.2-.3600006-.2-.2320007,0-.4320007.2399994-.4320007.5359985,0,.1119995.0160004.1920013.0559998.2799988-.1279999.0720001-.2479996.1119995-.3279999.1119995-.1759995,0-.4399994-.0720001-.4399994-.4559998,0-.8559998,1.1440002-1.6079987,1.1440002-2.6959991,0-.5200012-.3440002-1.0320007-1.0720001-1.0320007-.7759995,0-.6320007.7040009-1.3039993.7040009-.0320007,0-.0559998.0079987-.0559998.0399994,0,.0480011.1199997.4399994.4639999.4399994.3679993,0,.4720001-.6399994.8080002-.6399994.1199997,0,.3039993.0720001.3039993.5040009,0,.3359985-.1679993.8880005-.4080002,1.4079987-.0880005-.0880005-.2080002-.1519989-.3360001-.1519989-.2880005,0-.4960007.2799988-.4960007.6079987,0,.2079987.0800003.4160004.2240005.5440002-.1679993.2160004-.3440002.3920013-.5759995.3920013-.4639999,0-.6639999-.2640015-.6639999-.5519989,0-.3119995.5679993-.423999.5679993-.9040009,0-.3279999-.2160004-.5119995-.4160004-.5119995-.2240005,0-.3360001.1440002-.3600006.1440002s-.1360001-.1440002-.3600006-.1440002c-.2080002,0-.4160004.1839996-.4160004.5119995,0,.4799988.5679993.6.5679993.9040009,0,.2880005-.2080002.5519989-.6639999.5519989-.2320007,0-.4080002-.176001-.5759995-.3920013.1440002-.1359985.2240005-.3359985.2240005-.5440002,0-.3359985-.2080002-.6079987-.4960007-.6079987-.1360001,0-.2479996.0640015-.3360001.1519989-.2399994-.5279999-.4080002-1.0720001-.4080002-1.4079987,0-.4320007.1839996-.5040009.3039993-.5040009.3279999,0,.4320007.6399994.8080002.6399994.3440002,0,.4639999-.3920013.4639999-.4399994,0-.023999-.0240005-.0399994-.0559998-.0399994-.6720001,0-.5279999-.7040009-1.3039993-.7040009-.7199997,0-1.0720001.5119995-1.0720001,1.0320007,0,1.0880005,1.1440002,1.8399994,1.1440002,2.6959991,0,.3839996-.2639999.4559998-.4399994.4559998-.0880005,0-.2-.0399994-.3279999-.1119995.0399994-.0959991.0559998-.1679993.0559998-.2799988,0-.2959991-.2-.5359985-.4320007-.5359985-.1440002,0-.2639999.0799988-.3520004.2-.3919998-.4320007-.7199997-.9839996-.7199997-1.4880005,0-.2559998.1199997-.3279999.2-.3279999.1839996,0,.1919998.2559998.4479996.2559998.1919998,0,.3039993-.2320007.3039993-.3679993,0-.0399994-.0559998-.023999-.1039993-.023999-.4080002,0-.3360001-.3119995-.8160004-.3119995-.1600006,0-.7119995.0880005-.7119995.8640015,0,1.1839996,1.4559998,1.5359985,1.1199997,2.4399994.6160004-.0880005.6080002.5119995.6240005,1.5920013-.0079971,0,1.1920029-.4079987,3.3280029-.4079987ZM176.1119995,50.1359985c-.5839996.1279999-1,.2480011-1.1839996.3040009.0080002-.2559998.1039993-.4959991.3360001-.5440002.0320007-.0079987.0399994-.0480011.0080002-.0640015-.5199997-.3440002-.7919998.3119995-.8.3359985-.1839996-.0160004-.4639999.0399994-.4639999.2880005,0,.7440002-1.6959999,1.1519989-2.0879997,1.2160004.6959999.2640015.9840004,1.1440002.9840004,1.1440002.5039993-.5039978,1.0880005-.9440002,1.2240005-.9440002s.1839996.1679993.1919998.2640015c0,.0320007.0320007.0400024.0559998.0159973.2639999-.3919983.1360001-.4799988.1119995-.6-.0160004-.0880005.0080002-.4320007.3919998-.3920013v4.9519989l-.2.0400024c-.0880005.0159973-.8160004-.6-1.6399994-1.176001-.832-.576001-1.2720001-.2320007-2.2160004.2799988-1.2400002.6719971-2.4879997.0640015-2.4879997.0640015-1.0639999.7599976-1.432,2.9679993-1.432,2.9679993-.2160004.0880005-.568.1840027-.8959999.1840027-.816,0-.9599998-.4960022-.9599998-.7840027,0-1.2559998,1.5760002-1.7919983,1.5760002-3.0320007,0-.3039978-.1360001-1.5200012-1.648-1.5200012h-1.352c-.568,0-.7040001-.4080017-.784-.5599976-.032-.0640015-.0879999-.023999-.0639999.023999.04.1039978-.0639999.2640015-.0639999.576001,0,.5039978.2959999.8080017.848.8080017.248,0,.4880001-.0719971.5599998-.1200012.048-.0320007.0799999.0159973.0560001.047998-.2400002.2799988-.2560001.8080017-.1599998.9280029.0240002.0320007.0560001.023999.0560001,0,.1360001-.5280029.632-1.0320007,1.3040001-1.0320007.8239998,0,.816.6960022.816.8640015,0,1.0080017-1.768,1.7440002-1.768,3.1359985,0,1.4080017,1.4880001,1.7039978,2.3439999,1.4880005-.0480003,1.4080017-1.6639999,1.8880005-1.7120003.8799988,0-.047998-.0400002-.0559998-.0639999.0080017-.2.4960022-.1200001.9359985.5040001,1.0719971.0400002.0080017.0240002.0320007-.016.0640015-.6240002.3919983-.2880001,1.9440002-.2560001,2.4.048.6559998-.6080002.576001-.6639999.5599976-.0240002-.0080017-.0560001,0-.0080002.0559998.4639999.5679993,1.0400002.047998,1.0400002.047998.432.1359985.168.5039978-.1279999.6960022-.048.0320007-.0400002.0640015.0080002.0640015.0639999.0080017.7360001.0640015.8560001-.4719971.2960003.352002.7359997.223999.8240002.176001.1279999-.0640015.7599998-.2960022.8160004.4080017,0,.047998.032.0159973.0559998-.0080017.4720001-.6-.032-.9679993-.3199997-1.0080017.0239998-.0320007.4-.352002.7440002.0880005.0239998.0320007.0480003.0400024.0480003-.023999.0400002-.7599976-.5760002-.823999-.9760002-.4960022-.0160004-.0799988-.1519997-.5039978.4480003-.4880005.0160004,0,.0400002-.023999.0160004-.047998-.4639999-.4960022-.8480003-.047998-.9440002.0640015-.2080002.247998-.7279999.1440002-.7760002.1440002.1599998-2.6320007,2.4800003-1.6960022,2.8-2.976001.0160004-.0640015.0480003-.0400024.0480003-.0159973.0879997.3119995.8720001.352002,1.0159996-.2559998.0080002-.0400024,0-.0640015-.0239998-.0400024-.6720001.6719971-2.1840004-1.423999-.1199997-3.1280029,1.7599998-1.447998,3.3360008-.6400024,3.9360008-.1679993.0320007.2080017-.0960007.2799988-.1759995.3039978-.0320007.0080017-.0399994.0320007.0080002.0559998.1679993.0640015.4.0400024.5119995-.1119995.3759995.2640015.0559998.6-.0960007.6880005-.0399994.023999-.0240005.047998.0080002.0559998.3440002.0640015.6320007-.2880005.6479996-.4960022l.0559998.0320007v1.4960022c0,2.1280029,2.4559998,2.423999,5.1520004,4.223999,2.6959991-1.8080017,5.1440002-2.0960022,5.1440002-4.223999v-1.4960022l.0559998-.0320007c.0160004.2.2960007.5599976.6480011.4960022.0320007-.0080017.0480011-.0320007.0079987-.0559998-.1519989-.0960022-.4800003-.423999-.0959991-.6880005.1119995.1599976.3440002.176001.5119995.1119995.0480011-.0159973.0399994-.047998.0079987-.0559998-.0799988-.023999-.2079987-.0960022-.176001-.3039978.6-.4799988,2.176001-1.2880005,3.9360016.1679993,2.0640015,1.7039978.5519989,3.7919983-.1200012,3.1280029-.0320007-.0320007-.0320007,0-.023999.0400024.1440002.6159973.9279999.5679993,1.0160004.2559998.0079987-.023999.0399994-.047998.0480011.0159973.3200012,1.2799988,2.6320007.3440002,2.8,2.976001-.0480011.0080017-.5679993.1039978-.776001-.1440002-.0880005-.1039978-.4720001-.5599976-.9440002-.0640015-.0320007.0320007,0,.047998.0160004.047998.6-.0159973.4720001.4080017.4480011.4880005-.4-.3280029-1.0160004-.2640015-.976001.4960022,0,.0559998.023999.0559998.0480011.023999.3440002-.4400024.7200012-.1200012.7440002-.0880005-.2799988.0400024-.7920013.4080017-.3200012,1.0080017.023999.023999.0480011.0559998.0559998.0080017.0640015-.7039978.6880005-.4799988.8160004-.4080017.0880005.047998.5279999.176001.823999-.176001.1200012.5359985.7920013.4799988.8559998.4719971.0480011,0,.0480011-.0320007.0079987-.0640015-.2880005-.1919983-.5600006-.5599976-.1279999-.6960022,0,0,.576001.5200012,1.0399994-.047998.0399994-.047998.0160004-.0640015-.0079987-.0559998-.0559998.0159973-.7119995.0960022-.6640015-.5599976.0320007-.4559998.3679993-2.0080017-.2559998-2.4-.0399994-.023999-.0559998-.047998-.0160004-.0640015.623999-.1359985.7040009-.576001.5040009-1.0719971-.023999-.0640015-.0640015-.047998-.0640015-.0080017-.0480011,1.0080017-1.6559998.5280029-1.7119995-.8799988.8640015.223999,2.3440002-.0799988,2.3440002-1.4880005,0-1.3840027-1.7679993-2.1280029-1.7679993-3.1359985,0-.1679993-.0079987-.8640015.8160004-.8640015.6720001,0,1.1679993.5039978,1.3040009,1.0320007.0079987.023999.0320007.0320007.0559998,0,.0959991-.1280029.0799988-.647998-.1600006-.9280029-.023999-.023999,0-.0799988.0559998-.047998.0720001.047998.3119995.1200012.5600006.1200012.5519989,0,.8480011-.3039978.8480011-.8080017,0-.3119995-.1119995-.4719971-.0640015-.576001.023999-.047998-.0399994-.0799988-.0640015-.023999-.0799988.1599976-.223999.5599976-.7839996.5599976h-1.3519989c-1.5119995,0-1.6480011,1.223999-1.6480011,1.5200012,0,1.2400024,1.576001,1.776001,1.576001,3.0320007,0,.2960022-.1519989.7840027-.9600006.7840027-.3359985,0-.6880005-.0960022-.8959991-.1840027,0,0-.3600006-2.2-1.4320007-2.9679993,0,0-1.2480011.6080017-2.4880005-.0640015-.9440002-.5119995-1.3920013-.8559998-2.223999-.2799988-.8320007.576001-1.5520004,1.1919983-1.6399994,1.176001l-.2-.0400024v-4.9519989c.3839996-.0399994.4080002.3040009.3919998.3920013-.0240005.1119995-.1440002.2080017.112001.6.023999.0320007.0480011.0159973.0559998-.0159973.0079987-.0960022.0640015-.2640015.1920013-.2640015s.7200012.4400024,1.223999.9440002c0,0,.2880005-.8719971.9839996-1.1440002-.3920013-.0640015-2.0880005-.4720001-2.0880005-1.2160004,0-.2480011-.2799988-.3040009-.4639999-.2880005-.0080002-.023999-.2880005-.6799988-.8-.3359985-.0240005.0160004-.0240005.0559998.0080002.0640015.2320007.0559998.3279999.2880005.3360001.5440002-.4960007-.1519989-2.6-.7440002-5.0960007-.7440002-1.2160004,0-2.3279999.1440002-3.2160004.3040009v1.7119995h-.6960007v-1.576001h-.0000015M171.5040001,67.7200012c-.1840004-.0720032-.3040001-.1919983-.3040001-.4400024v-1.0640015c-.3040001-.1039978-1.1360001-.423999-2.8080002-.423999-1.3839996,0-1.8160004.3119995-1.8400002.423999l-.3679996,2.0240051s.5600002-.5119995,2.5680004-.3840027c2.4160004.152002,4.9199997,1.5840027,4.9199997.0559998v-.8960022c-1.8880005.0080017-2.168.6160034-2.168.7040039ZM186.376001,67.023999v.8960022c0,1.5200012,2.5040009.0960022,4.9200012-.0559998,2.0079987-.1280029,2.5679993.3840027,2.5679993.3840027l-.3679993-2.0320007c-.0160004-.1119995-.4559998-.423999-1.8399994-.423999-1.6639984,0-2.4959991.3200012-2.8079987.423999v1.0640015c0,.2400024-.1200012.3599976-.3040009.4400024.0079956-.0880066-.2720032-.6960083-2.1680023-.6960083ZM180.0240005,66.1039978c3.8960007,0,7.8479996.2,8.3599991.7919983.0399994.047998.0559998,0,.0559998-.0400024v-2.0640015c0-.6-4.0800003-.952002-8.423999-.952002s-8.4239998.352002-8.4239998.952002v2.0640015c0,.0320007.0160004.0799988.0559998.0400024.5359993-.5839966,4.4879997-.7919983,8.3760002-.7919983ZM176.5520004,56.376001l-.3919998-.1039978-.0320007.047998-.4559998-.2h.4080002c.0399994,0,.0399994-.023999.0240005-.0400024-.1839996-.1840027-.3520004-.3440002-.3520004-.3440002,0,0,.1839996.0719971.4479996.1679993.0320007.0080017.0399994-.0080017.0240005-.0320007-.1279999-.1840027-.3039993-.4400024-.3039993-.4400024,0,0,.3679993.247998.4399994.2960022.0240005.0159973.0399994,0,.0320007-.023999-.0960007-.2400024-.2080002-.5200012-.2080002-.5200012l.4.3840027c.0160004.0159973.0399994.0080017.0320007-.0159973-.0399994-.1840027-.1119995-.5200012-.1119995-.5200012l.2960007.4320007c.0160004.023999.0399994.0159973.0399994-.0080017,0-.0880005.0080002-.4719971.0080002-.4719971,0,0,.1279999.2880005.1839996.4320007.0160004.0320007.0320007.0320007.0479996-.0080017.0160004-.047998.1520004-.3679993.1520004-.3679993l.0160004.4960022-.0639999.0159973-.0800003.5919983c.5839996-.1359985,1.3199997-1.1440002,1.8800003-1.1440002.6720001,0,.9119995.7840027,2.1440002.3840027.3119995.4640015.4240005.8640015.5440002,1.4159973.4800003.447998,1.1440002.2960022,1.1440002-.176001,0-.6400024-.6960007-.7599976-.6960007-1.4320007,0-.2960022.2080002-.7280029.7759995-.7280029.3039993,0,.7440002.1280029,1,.1280029.3039993,0,.3679993-.2159973.4-.3119995.0240005-.0640015.1119995-.047998.1039993.0080017-.0080002.0640015.0320007.152002.0320007.2960022,0,.423999-.6160004.4799988-.6880005.423999-.0320007-.023999-.0559998.0080017-.0320007.0320007.0960007.0719971.0720001.3280029-.0399994.4880005-.0160004.0159973-.0320007.0159973-.0320007,0-.0639999-.3039978-.4240005-.6799988-.7360001-.6799988-.1119995,0-.3440002.0640015-.3440002.3359985,0,.376001.7600006.7280029.7600006,1.5119995,0,.8159973-.8080002,1.0159973-1.6240005.8080017.0240005.776001,1.1839996,1.2320007,1.2080002.6799988,0-.0400024.0240005-.0159973.0320007,0,.1679993.2400024.0960007.4159973-.1279999.5119995.2.0880005.2399994.4960022.2960007.7440002.0880005.3679993.4720001.1599976.4960007.152002.0240005-.0159973.0320007,0,.0160004.023999-.1440002.376001-.5360001.2320007-.5360001.2320007-.2.1440002.0399994.2719971.2240005.3280029.0240005.0080017.0240005.023999.0080002.0400024-.1360001.047998-.4240005.1440002-.5679993-.1039978-.1039993.2559998-.3199997.247998-.4.247998-.1520004,0-.2479996.152002-.2160004.3599976,0,.0159973-.0080002.023999-.0240005.0159973-.3520004-.2320007-.1520004-.5119995-.0080002-.5840027-.0240005-.0159973-.2720001-.1200012-.3759995.1679993-.0080002.023999-.0240005.023999-.0320007,0-.1520004-.4159973.1839996-.5359985.4240005-.4320007-.0160004-.0559998-.1440002-.2640015-.4639999-.1919983-.0160004.0080017-.0240005,0-.0160004-.023999.0559998-.1280029.2080002-.3119995.5039993-.1280029.1520004.0960022.4080002-.0400024.4320007-.0559998-.5199997-1.0320007-1.5199997-.1679993-1.7520004-.976001-.0080002-.0159973-.0240005-.0320007-.0399994.0159973-.0559998.1679993-.4960007.1840027-.5759995-.152002-.0080002-.023999,0-.0320007.0240005-.0159973.0639999.0640015.2.1200012.3839996-.1359985.1199997-.176001.1360001-.4080017.1360001-.5599976,0-.623999-.6240005-1.6799988-1.6-1.6799988-.6160004,0-1.2800003.2400024-1.7759995.6l.4559998.1039978c-.0399994.4640015-.4880005.7359985-.8960007.6159973l.0720001-.5280029c-.0720001.023999-.2479996.0880005-.3440002.223999-.0080002.0080017-.0240005.0080017-.0240005-.0080017-.0800003-.3039978.1679993-.4559998.2399994-.4880005q.0080002-.0080017-.0080002-.0080017c-.2240005-.0080017-.3440002.152002-.3839996.2080017-.0080002.0080017-.0160004.0080017-.0160004,0,.0239975-.0639893-.0160034-.2159912.0879974-.3279907ZM177.9199997,59.9599976c-.1759995.2159973-.3279999.0080017-.5600006.0080017-.2160004,0-.2559998.1840027-.2559998.2559998,0,.0159973-.0080002.0159973-.0160004.0080017-.2479996-.3359985.0320007-.5200012.1919998-.5440002-.0240005-.023999-.2639999-.1840027-.4160004.0400024-.0080002.0159973-.0240005.0080017-.0240005-.0080017-.0080002-.4159973.3199997-.447998.5440002-.2640015.0399994-.1599976-.0639999-.2640015-.2399994-.2719971-.0240005,0-.0240005-.0159973-.0160004-.023999.0720001-.0799988.1440002-.1119995.2160004-.1119995.2320007,0,.2639999.2960022.4160004.2960022.2240005,0,.5520004-.3039978.5759995-.3359985-.0080002-.0159973-.2240005-.6080017-.1839996-.9599976,0-.0159973-.0080002-.0159973-.0160004-.0080017-.1119995.0640015-.3839996.0559998-.3839996-.2799988,0-.023999.0080002-.0320007.0240005-.0080017.1199997.1679993.3199997-.023999.4160004-.1359985.1039993-.1200012.6800003-.952002,1.4399994-.952002.1679993,0,.3839996.0960022.5600006.2159973-.2639999.3200012,0,.623999.1919998.5840027.0240005-.0080017.0240005.0159973.0080002.023999-1.0080002.376001-1.4559998.5280029-1.4559998,1.376001,0,.4400024.1520004.6880005.4080002.623999.0160004-.0080017.0240005,0,.0080002.0159973-.0960007.1119995-.2.152002-.2880005.152002-.2080002,0-.2479996-.1119995-.3600006-.1119995-.1119995,0-.4880005.223999-.4880005.4080017,0,.0719971.0479996.1679993.1759995.247998.0080002.0080017,0,.0159973,0,.0159973-.111998-.0000061-.4079987.023999-.4719986-.2560059ZM180.5679993,51.7599976c-.3119995-.0159973-.5199997.047998-.5039993.152002.1520004.1599976.3520004.1440002.5039993-.152002ZM179.4080002,52.5359985c.2240005-.0559998.4639999-.0320007.4960007-.023999s.0320007.0640015-.0080002.0719971c-.4639999.0559998-.4880005.2719971-.7839996.2719971-.1919998,0-.4080002-.2-.3279999-.4880005.0080002-.0400024.0399994-.0400024.0479996,0,.0319992.128009.2159988.2640076.5759995.1680054ZM173.3839996,62.823999c.3039993.3919983.6.023999,1.0080002.023999.2,0,.4399994.0640015.4800003.4640015,0,.023999.0160004.023999.0399994,0,.4399994-.6-.0639999-.9359985-.3520004-.9840027.0639999-.0559998.4880005-.3200012.7679993.0719971.0160004.023999.0479996.0159973.0479996-.0159973,0-.7599976-.5679993-.8159973-.9839996-.4880005-.0800003-.2960022.1440002-.4880005.4320007-.4880005.0320007,0,.0479996-.023999.0320007-.0400024-.5119995-.5440002-.8880005.1440002-.9759995.247998-.2.2719971-.9279999-.2400024-1.2239998-.5440002,0,0,.6400002-.6719971.6400002-1.2880005,0-.0400024-.0080002-.0880005-.0080002-.1119995,0-.0159973.0080002-.023999.0240005-.0159973.0639999.0400024.1520004.0640015.2399994.0640015.1440002,0,.4240005-.047998.4240005-.5679993,0-.0400024-.0160004-.0400024-.0320007-.0159973-.0800003.1119995-.1600006.1359985-.2240005.1359985-.5199997,0-1.6-1.7280029-2.8800003-1.7280029-.3360001,0-.968.2400024-1.2800003.5840027.1519997.0880005.1839996.2799988.168.4159973-.0239998.2159973-.2.3280029-.3760002.376001-.032.0080017-.032.0320007,0,.047998.6480003.247998,1.8160004.6880005,2.0879997.9200012.3120003.2719971.2559998.7840027.0720001,1.4960022-.1760002.6799988-.5519997.5919983-.6959999.5679993-.0239998,0-.0239998.0080017-.0160004.023999.168.2080017.368.2799988.5440002.2799988.3360001,0,.4639999-.2080017.632-.2080017.2879997,0,.9040001.4159973.9040001.7359985,0,.176001-.1360001.3440002-.3199997.4559998-.0080002.0080017-.0080002.023999.0080002.023999.1360008.0240112.7040009.0720093.8160004-.4399902ZM187.4880005,63.2640015c.0160004,0,.023999-.0159973.0079987-.023999-.176001-.1200012-.3200012-.2799988-.3200012-.4559998,0-.3200012.6079987-.7359985.9040009-.7359985.176001,0,.2959991.2080017.6320007.2080017.176001,0,.376001-.0719971.5440002-.2799988.0160004-.0159973.0079987-.0320007-.0160004-.023999-.1359985.023999-.5200012.1119995-.6959991-.5679993-.1839996-.7119995-.2480011-1.223999.0720001-1.4960022.2640015-.2320007,1.4399994-.6719971,2.0880005-.9200012.0320007-.0159973.0320007-.0400024,0-.047998-.176001-.047998-.3519989-.1599976-.376001-.376001-.0160004-.1359985.0160004-.3200012.1679993-.4159973-.3200012-.3440002-.9519989-.5840027-1.2880005-.5840027-1.2799988,0-2.3600006,1.7280029-2.8799988,1.7280029-.0640015,0-.1519989-.023999-.223999-.1359985-.0160004-.023999-.0320007-.023999-.0320007.0159973,0,.5200012.2799988.5679993.423999.5679993.0799988,0,.176001-.023999.2399994-.0640015.0160004-.0080017.023999,0,.023999.0159973,0,.023999-.0079987.0719971-.0079987.1119995,0,.6159973.6399994,1.2880005.6399994,1.2880005-.2880005.3039978-1.0160004.8080017-1.223999.5440002-.0880005-.1119995-.4640015-.7919983-.9759995-.247998-.0160004.023999-.0080002.0400024.0320007.0400024.2880005,0,.512001.1919983.4319992.4880005-.4160004-.3280029-.9839996-.2719971-.9839996.4880005,0,.0320007.0320007.0400024.0479996.0159973.2720001-.3919983.7039993-.1280029.7600006-.0719971-.2880005.0400024-.7839996.3840027-.3520004.9840027.0160004.023999.0320007.023999.0399994,0,.0479996-.3919983.2880005-.4640015.4799988-.4640015.4,0,.6959991.3679993,1.0079987-.023999.1280029.5119873.6960022.4639893.8320038.4399902ZM177.1600006,53.2880005c-.0399994.0559998-.1759995,0-.2240005-.023999-.0080002-.0080017-.0160004,0-.0080002.0080017.0320007.0719971.1600006.2880005.3520004.2880005.0880005,0,.2160004-.047998.2479996-.1119995,0,0,.7520004.247998,1.1199997.3440002-.1440002.1919983-.2320007.423999-.2559998.6719971-.2960007-.1840027-1.4960007-.823999-1.4960007-.823999l-.3679993.5119995c-.0639999.0799988-.3600006-.1359985-.2960007-.2159973l.2800003-.3919983c-.0960007-.0960022-.3199997-.0400024-.3839996-.0159973-.0080002,0-.0160004,0-.0080002-.0159973.0399994-.0799988.1759995-.3119995.5279999-.2080017,0-.2159973-.3199997-.1440002-.4080002-.1200012-.0080002,0-.0160004,0-.0080002-.0080017.0880005-.0960022.3520004-.3039978.6399994-.1280029l.1279999-.176001-.2559998-.2719971.1600006-.223999.1839996.2400024,1.3839996-1.8959991c.0320007-.0480011.3119995-.1279999.4080002-.1519989.0080002.1040009.0240005.3920013-.0080002.4399994l-1.3600006,1.9120026.2880005.0960022-.1600006.223999-.3360001-.1599976-.1439972.2079834ZM182.0160004,52.976001c0,.176001.1039993.4320007.3360001.352002.0080002-.0080017.0240005,0,.0160004.0080017-.0320007.1919983-.3839996.3679993-.5360001.1440002-.1440002.2960022-.1039993.576001.1919998.7359985.0160004.0080017.0160004.0320007,0,.047998-.1839996.1280029-.4639999.1039978-.5919998-.152002-.2479996.1840027-.2160004.5840027-.0639999.7200012,0,0-.6880005.4080017-1.3119995.1200012-.4160004-.2-.7520004-.4559998-1.2880005-.4080017.0720001-.752002.4479996-.9440002,1.1360001-1.0559998.5520004-.0880005.6160004-.3440002.5440002-.5359985-.1839996-.047998-.5279999.1200012-.5279999.1200012-.0639999-.1039978.0240005-.2080017.0240005-.2080017-.0320007-.0400024-.0479996-.176001-.0479996-.176001.3839996,0,.4559998-.0880005.4559998-.0880005.0720001-.4-.3360001-.4400024-.6479996-.223999-.1440002-.1280029-.1199997-.2960022-.1199997-.2960022-.0399994-.023999-.0720001-.0880005-.0720001-.1200012,0-.0960022.4559998-.352002.5759995-.3840027.0320007-.1359985.1919998-.3200012.6800003-.2719971.0559998-.1279999-.0399994-.6-.0960007-.7200012-.0160004-.0399994.0080002-.0559998.0479996-.0320007.1679993.1040009.3360001.5040009.4559998.5119995,0,0,.5440002-.2880005.5679993-.2720001.0240005.0160004.1039993.6240021.1039993.6240021.0720001.0880005.4960007,0,.6800003.0799988.0479996.023999.0479996.0559998,0,.0640015-.1360001.023999-.5759995.2159973-.6479996.3359985.2559998.376001.1360001.9280029.1360001,1.0800049Z"/>
    </g>
  </g>
  <g id="Woordmerk">
    <g>
      <path class="cls-1" d="M210.2255859,51.8408203v-7.8720703h2.2802734c.9755859,0,1.7080078.1962891,2.1962891.5878906.4873047.3925781.7314453.9287109.7314453,1.6083984,0,.3759766-.0576172.7119141-.1738281,1.0078125s-.2822266.5478516-.4980469.7558594-.4716797.3759766-.7675781.5039062l2.0878906,3.4082031h-1.65625l-1.7636719-3.0244141h-1.0322266v3.0244141h-1.4042969ZM211.6181641,47.7011719h.8876953c.4482422,0,.8037109-.1103516,1.0683594-.3300781.2636719-.2197266.3955078-.5537109.3955078-1.0019531,0-.4238281-.1220703-.7421875-.3662109-.9541016s-.6298828-.3183594-1.1572266-.3183594h-.828125v2.6044922Z"/>
      <path class="cls-1" d="M217.6357422,44.953125c-.2402344,0-.4316406-.0683594-.5761719-.2041016-.1435547-.1357422-.2158203-.3203125-.2158203-.5517578,0-.2402344.0722656-.4306641.2158203-.5703125.1445312-.1396484.3359375-.2099609.5761719-.2099609.2558594,0,.4501953.0703125.5820312.2099609s.1982422.3300781.1982422.5703125c0,.2314453-.0664062.4160156-.1982422.5517578s-.3261719.2041016-.5820312.2041016ZM216.9755859,51.8408203v-5.9160156l1.3320312-.0839844v6h-1.3320312Z"/>
      <path class="cls-1" d="M219.1523438,54.1806641l-.1201172-1.0673828c.3203125-.0810547.5527344-.2197266.6962891-.4160156s.2158203-.4716797.2158203-.8242188v-5.9482422l1.3320312-.0839844v6.0175781c0,.4892578-.09375.8984375-.2822266,1.2275391-.1875.328125-.4414062.5791016-.7617188.7519531s-.6796875.2871094-1.0800781.3427734ZM220.6044922,44.953125c-.2402344,0-.4316406-.0683594-.5761719-.2041016-.1435547-.1357422-.2158203-.3203125-.2158203-.5517578,0-.2402344.0722656-.4306641.2158203-.5703125.1445312-.1396484.3359375-.2099609.5761719-.2099609.2558594,0,.4501953.0703125.5820312.2099609s.1982422.3300781.1982422.5703125c0,.2314453-.0664062.4160156-.1982422.5517578s-.3261719.2041016-.5820312.2041016Z"/>
      <path class="cls-1" d="M222.8916016,51.8408203v-8.3398438l1.3320312-.0722656v4.6201172h.4912109l1.7285156-2.1240234h1.5361328l-2.0878906,2.484375,2.2441406,3.4316406h-1.5839844l-1.7646484-2.7363281h-.5634766v2.7363281h-1.3320312Z"/>
      <path class="cls-1" d="M230.6738281,51.9492188c-.3525391,0-.6640625-.0146484-.9365234-.0419922-.2714844-.0283203-.5273438-.0703125-.7675781-.1259766v-1.1767578c.2880859.0800781.5732422.1367188.8574219.1679688.2841797.0322266.5664062.0488281.8466797.0488281.4072266,0,.6992188-.0595703.8759766-.1787109.1757812-.1201172.2636719-.2734375.2636719-.4628906,0-.1621094-.0644531-.296875-.1923828-.40625s-.3515625-.2080078-.671875-.296875l-.6953125-.2177734c-.4082031-.1210938-.7226562-.3095703-.9423828-.5634766-.2197266-.2548828-.3300781-.5917969-.3300781-1.0126953,0-.3632812.0976562-.6845703.2939453-.9628906s.4755859-.4990234.8398438-.6601562c.3642578-.1621094.8017578-.2431641,1.3144531-.2431641.2880859,0,.5498047.0107422.7861328.0302734.2353516.0205078.4580078.0498047.6660156.0898438l-.0966797,1.1279297c-.2392578-.0400391-.4658203-.0673828-.6777344-.0839844-.2119141-.015625-.4462891-.0234375-.7021484-.0234375-.3994141,0-.6835938.0556641-.8515625.1669922s-.2519531.2529297-.2519531.4257812c0,.1611328.0537109.2910156.1621094.3876953.1074219.0966797.3017578.1816406.5820312.2548828l.6953125.1816406c.4638672.1289062.8125.3232422,1.0439453.5820312.2324219.2578125.3486328.59375.3486328,1.0048828,0,.4042969-.1005859.7558594-.2998047,1.0546875-.2001953.2988281-.4824219.5292969-.8466797.6914062-.3642578.1611328-.8017578.2421875-1.3134766.2421875Z"/>
      <path class="cls-1" d="M236.8828125,51.9492188c-.5517578,0-1.0341797-.1103516-1.4453125-.3300781-.4121094-.21875-.734375-.5488281-.9667969-.9873047-.2314453-.4394531-.3476562-.9863281-.3476562-1.6416016,0-.6542969.1337891-1.21875.4023438-1.6943359.2675781-.4746094.6259766-.8398438,1.0742188-1.0957031.4472656-.2558594.9316406-.3837891,1.4511719-.3837891.5527344,0,1.0341797.1103516,1.4462891.3300781s.734375.5488281.9658203.9873047c.2324219.4394531.3486328.9863281.3486328,1.6416016,0,.6542969-.1347656,1.2197266-.4023438,1.6943359-.2685547.4755859-.6259766.8408203-1.0742188,1.0957031-.4482422.2558594-.9316406.3837891-1.4521484.3837891ZM236.9667969,50.7724609c.2880859,0,.5419922-.0751953.7626953-.2265625.2197266-.1513672.3955078-.3710938.5273438-.6582031.1328125-.2871094.1982422-.6416016.1982422-1.0644531,0-.6220703-.1337891-1.0830078-.4023438-1.3818359-.2675781-.2988281-.6298828-.4482422-1.0859375-.4482422-.2792969,0-.5322266.0751953-.7558594.2265625s-.4013672.3710938-.5341797.6582031c-.1318359.2871094-.1972656.6416016-.1972656,1.0644531,0,.6220703.1337891,1.0830078.4013672,1.3818359.2685547.2988281.6298828.4482422,1.0859375.4482422Z"/>
      <path class="cls-1" d="M242.1748047,51.8408203l-1.8837891-5.9160156h1.5244141l1.2958984,4.8505859h.0712891l1.3203125-4.8505859h1.3798828l-1.8955078,5.9160156h-1.8125Z"/>
      <path class="cls-1" d="M249.2666016,51.9492188c-.9033203,0-1.6181641-.2490234-2.1416016-.7470703-.5244141-.4980469-.7861328-1.2607422-.7861328-2.2890625,0-.6826172.1162109-1.2529297.3476562-1.7109375.2324219-.4580078.5507812-.8027344.9541016-1.0361328.4042969-.2324219.8505859-.3496094,1.3378906-.3496094.4882812,0,.9082031.0947266,1.2607422.2832031.3515625.1884766.6220703.4619141.8095703.8193359.1884766.3574219.2822266.7929688.2822266,1.3066406,0,.1767578-.0019531.3466797-.0058594.5117188s-.0146484.3193359-.0302734.4638672h-3.6474609c.03125.3623047.1210938.6630859.2695312.9003906.1474609.2373047.3496094.4150391.6064453.5322266.2558594.1171875.5556641.1748047.8994141.1748047.3359375,0,.6396484-.0244141.9121094-.0722656.2714844-.0488281.5517578-.125.8398438-.2294922v1.1054688c-.3037109.1123047-.5996094.1962891-.8876953.2529297-.2880859.0556641-.6279297.0839844-1.0205078.0839844ZM247.6347656,48.2285156h2.3886719c0-.4355469-.1005859-.7724609-.3007812-1.0107422s-.4755859-.3574219-.828125-.3574219c-.3193359,0-.5957031.1220703-.8271484.3632812-.2324219.2421875-.3769531.5771484-.4326172,1.0048828Z"/>
      <path class="cls-1" d="M252.6728516,51.8408203v-5.9160156l1.3193359-.0595703v.671875c.2080078-.2646484.4121094-.4501953.6123047-.5585938.2001953-.1074219.4082031-.1621094.6240234-.1621094.1435547,0,.265625.0068359.3662109.0185547.0996094.0117188.2099609.0341797.3300781.0654297l-.0966797,1.2841797c-.1279297-.0400391-.2451172-.0654297-.3535156-.078125-.1083984-.0117188-.2265625-.0175781-.3544922-.0175781-.1914062,0-.3740234.0341797-.5458984.1015625-.171875.0683594-.3613281.1826172-.5693359.3427734v4.3076172h-1.3320312Z"/>
      <path class="cls-1" d="M256.8183594,51.8408203v-8.3398438l1.3320312-.0722656v2.8320312c.2480469-.1513672.4921875-.2636719.7324219-.3359375.2392578-.0722656.5195312-.1083984.8398438-.1083984.6396484,0,1.1376953.1796875,1.4941406.5371094.3554688.3564453.5341797.8808594.5341797,1.5712891v3.9160156h-1.3320312v-3.6787109c0-.3535156-.0947266-.6289062-.2822266-.8261719-.1884766-.1962891-.4619141-.2949219-.8222656-.2949219-.2236328,0-.4199219.015625-.5878906.0478516s-.3603516.0878906-.5761719.1679688v4.5839844h-1.3320312Z"/>
      <path class="cls-1" d="M265.9501953,51.9492188c-.9033203,0-1.6181641-.2490234-2.1416016-.7470703-.5244141-.4980469-.7861328-1.2607422-.7861328-2.2890625,0-.6826172.1162109-1.2529297.3476562-1.7109375.2324219-.4580078.5507812-.8027344.9541016-1.0361328.4042969-.2324219.8505859-.3496094,1.3378906-.3496094.4882812,0,.9082031.0947266,1.2607422.2832031.3515625.1884766.6220703.4619141.8095703.8193359.1884766.3574219.2822266.7929688.2822266,1.3066406,0,.1767578-.0019531.3466797-.0058594.5117188s-.0146484.3193359-.0302734.4638672h-3.6474609c.03125.3623047.1210938.6630859.2695312.9003906.1474609.2373047.3496094.4150391.6064453.5322266.2558594.1171875.5556641.1748047.8994141.1748047.3359375,0,.6396484-.0244141.9121094-.0722656.2714844-.0488281.5517578-.125.8398438-.2294922v1.1054688c-.3037109.1123047-.5996094.1962891-.8876953.2529297-.2880859.0556641-.6279297.0839844-1.0205078.0839844ZM264.3183594,48.2285156h2.3886719c0-.4355469-.1005859-.7724609-.3007812-1.0107422s-.4755859-.3574219-.828125-.3574219c-.3193359,0-.5957031.1220703-.8271484.3632812-.2324219.2421875-.3769531.5771484-.4326172,1.0048828Z"/>
      <path class="cls-1" d="M270.0068359,44.953125c-.2402344,0-.4326172-.0683594-.5761719-.2041016-.1445312-.1357422-.2158203-.3203125-.2158203-.5517578,0-.2402344.0712891-.4306641.2158203-.5703125.1435547-.1396484.3359375-.2099609.5761719-.2099609.2558594,0,.4492188.0703125.5820312.2099609.1318359.1396484.1972656.3300781.1972656.5703125,0,.2314453-.0654297.4160156-.1972656.5517578-.1328125.1357422-.3261719.2041016-.5820312.2041016ZM269.3466797,51.8408203v-5.9160156l1.3320312-.0839844v6h-1.3320312Z"/>
      <path class="cls-1" d="M274.4882812,51.9492188c-.4960938,0-.9326172-.109375-1.3085938-.3271484-.3759766-.21875-.6699219-.5439453-.8818359-.9755859-.2119141-.4326172-.3173828-.9677734-.3173828-1.6064453,0-.6787109.1337891-1.2578125.4013672-1.7382812.2685547-.4814453.6367188-.8486328,1.1044922-1.1035156.4677734-.2539062.9980469-.3818359,1.5898438-.3818359.1679688,0,.3222656.0068359.4619141.0185547s.2705078.0380859.3896484.078125v-2.4121094l1.3320312-.0722656v8.4121094h-1.2832031v-.3603516c-.2089844.1445312-.4423828.2587891-.7021484.3427734-.2607422.0839844-.5224609.1259766-.7861328.1259766ZM274.8359375,50.7851562c.2236328,0,.4179688-.0224609.5820312-.0664062s.3378906-.1142578.5224609-.2099609v-3.4794922c-.1445312-.0244141-.2861328-.0419922-.4267578-.0546875-.1396484-.0117188-.2900391-.0175781-.4492188-.0175781-.3447266,0-.6464844.0771484-.90625.2314453s-.4619141.3798828-.6064453.6767578c-.1435547.296875-.2158203.65625-.2158203,1.0791016,0,.6337891.1376953,1.0986328.4140625,1.3955078s.6376953.4453125,1.0859375.4453125Z"/>
    </g>
  </g>
  <metadata><?xpacket begin="﻿" id="W5M0MpCehiHzreSzNTczkc9d"?>
<x:xmpmeta xmlns:x="adobe:ns:meta/" x:xmptk="XMP Core 6.0.0">
   <rdf:RDF xmlns:rdf="http://www.w3.org/1999/02/22-rdf-syntax-ns#">
      <rdf:Description rdf:about=""
            xmlns:dc="http://purl.org/dc/elements/1.1/"
            xmlns:xmp="http://ns.adobe.com/xap/1.0/"
            xmlns:xmpGImg="http://ns.adobe.com/xap/1.0/g/img/"
            xmlns:xmpMM="http://ns.adobe.com/xap/1.0/mm/"
            xmlns:stRef="http://ns.adobe.com/xap/1.0/sType/ResourceRef#"
            xmlns:stEvt="http://ns.adobe.com/xap/1.0/sType/ResourceEvent#"
            xmlns:illustrator="http://ns.adobe.com/illustrator/1.0/"
            xmlns:xmpTPg="http://ns.adobe.com/xap/1.0/t/pg/"
            xmlns:stDim="http://ns.adobe.com/xap/1.0/sType/Dimensions#"
            xmlns:xmpG="http://ns.adobe.com/xap/1.0/g/"
            xmlns:pdf="http://ns.adobe.com/pdf/1.3/"
            xmlns:pdfxid="http://www.npes.org/pdfx/ns/id/"
            xmlns:pdfx="http://ns.adobe.com/pdfx/1.3/">
         <dc:format>image/svg+xml</dc:format>
         <dc:title>
            <rdf:Alt>
               <rdf:li xml:lang="x-default">LOGO_ORG_NL_RGB_COMPACT_BLAUW</rdf:li>
            </rdf:Alt>
         </dc:title>
         <xmp:MetadataDate>2024-07-25T09:38:14+02:00</xmp:MetadataDate>
         <xmp:ModifyDate>2024-07-25T09:38:14+02:00</xmp:ModifyDate>
         <xmp:CreateDate>2024-07-25T09:38:14+02:00</xmp:CreateDate>
         <xmp:CreatorTool>Adobe Illustrator 28.5 (Macintosh)</xmp:CreatorTool>
         <xmp:Thumbnails>
            <rdf:Alt>
               <rdf:li>
                  <rdf:Description>
                     <xmpGImg:width>256</xmpGImg:width>
                     <xmpGImg:height>176</xmpGImg:height>
                     <xmpGImg:format>JPEG</xmpGImg:format>
                     <xmpGImg:image>/9j/4AAQSkZJRgABAgEASABIAAD/7QAsUGhvdG9zaG9wIDMuMAA4QklNA+0AAAAAABAASAAAAAEA&#xA;AQBIAAAAAQAB/+4ADkFkb2JlAGTAAAAAAf/bAIQABgQEBAUEBgUFBgkGBQYJCwgGBggLDAoKCwoK&#xA;DBAMDAwMDAwQDA4PEA8ODBMTFBQTExwbGxscHx8fHx8fHx8fHwEHBwcNDA0YEBAYGhURFRofHx8f&#xA;Hx8fHx8fHx8fHx8fHx8fHx8fHx8fHx8fHx8fHx8fHx8fHx8fHx8fHx8fHx8f/8AAEQgAsAEAAwER&#xA;AAIRAQMRAf/EAaIAAAAHAQEBAQEAAAAAAAAAAAQFAwIGAQAHCAkKCwEAAgIDAQEBAQEAAAAAAAAA&#xA;AQACAwQFBgcICQoLEAACAQMDAgQCBgcDBAIGAnMBAgMRBAAFIRIxQVEGE2EicYEUMpGhBxWxQiPB&#xA;UtHhMxZi8CRygvElQzRTkqKyY3PCNUQnk6OzNhdUZHTD0uIIJoMJChgZhJRFRqS0VtNVKBry4/PE&#xA;1OT0ZXWFlaW1xdXl9WZ2hpamtsbW5vY3R1dnd4eXp7fH1+f3OEhYaHiImKi4yNjo+Ck5SVlpeYmZ&#xA;qbnJ2en5KjpKWmp6ipqqusra6voRAAICAQIDBQUEBQYECAMDbQEAAhEDBCESMUEFURNhIgZxgZEy&#xA;obHwFMHR4SNCFVJicvEzJDRDghaSUyWiY7LCB3PSNeJEgxdUkwgJChgZJjZFGidkdFU38qOzwygp&#xA;0+PzhJSktMTU5PRldYWVpbXF1eX1RlZmdoaWprbG1ub2R1dnd4eXp7fH1+f3OEhYaHiImKi4yNjo&#xA;+DlJWWl5iZmpucnZ6fkqOkpaanqKmqq6ytrq+v/aAAwDAQACEQMRAD8A5NnQOpdirsVdirsVdirs&#xA;VdirsVdiqYeXf+Ug0z/mLg/5OLkZ8imPN95ZoXauxV2KuxV2KuxV2KuxV2KuxV2KuxV2KuxV2Kux&#xA;V2KuxV2KuxV2Kvz9zoHUuxV2KuxV2KuxV2KuxV2KuxVMPLv/ACkGmf8AMXB/ycXIz5FMeb7yzQu1&#xA;dirsVdirsVdirsVdirsVdirsVdirsVdirsVdirsVdirsVdirsVfn7nQOpdirsVdirsVdirsVdirs&#xA;VdiqYeXf+Ug0z/mLg/5OLkZ8imPN95ZoXauxV2KuxV2KuxV2KuxV2KuxV2KuxV2KuxV2KuxV2Kux&#xA;V2KuxV2Kvz9zoHUuxV2KuxV2KuxV2KuxV2KuxVMPLv8AykGmf8xcH/JxcjPkUx5vvLNC7V2KuxV2&#xA;KuxV2KuxV2KuxV2KuxV2KuxV2KuxV2KuxV2KuxV2KuxV+fudA6l2KuxV2KuxV2KuxV2KuxV2Kph5&#xA;d/5SDTP+YuD/AJOLkZ8imPN95ZoXauxV2KuxV2KuxV2KuxV2KuxV2KuxV2KuxV2KuxV2KuxV2Kux&#xA;V2Kvz9zoHUuxV2KuxV2KuxV2KuxV2KuxVMPLv/KQaZ/zFwf8nFyM+RTHm+8s0LtXYq7FXYq7FXYq&#xA;7FXYq7FXYq7FXYq7FXYq7FXYq7FXYq7FXYq7FX5+50DqXYq7FXYq7FXYq7FXYq7FXYqmHl3/AJSD&#xA;TP8AmLg/5OLkZ8imPN95ZoXauxV2KuxV2KuxV2KuxV2KuxV2KuxV2KuxV2KuxV2KuxV2KuxV2Kvz&#xA;9zoHUuxV2KuxV2KuxV2KuxV2KuxVMPLv/KQaZ/zFwf8AJxcjPkUx5vvLNC7V2KuxV2KuxV2KuxV2&#xA;KuxV2KuxV2KuxV2KuxV2KuxV2KuxV2KuxV+fudA6l2KuxV2KuxV2KuxV2KuxV2Kph5d/5SDTP+Yu&#xA;D/k4uRnyKY833lmhdq7FXYq7FXYq7FXYq7FXYq7FXYq7FXYq7FXYq7FXYq7FXYq7FXYq/P3OgdS7&#xA;FXYq7FXYq7FXYq7FXYq7FUw8u/8AKQaZ/wAxcH/JxcjPkUx5vvLNC7V2KuxV2KuxV2KuxV2KuxV2&#xA;KuxV2KuxV2KuxV2KuxV2KuxV2KuxV+fudA6l2KuxV2KuxVVNrdC1W7MLi1d2iWfifTMigMyBunIB&#xA;gSPfG1pSxV2KuxV2Kph5d/5SDTP+YuD/AJOLkZ8imPN95ZoXauxV2KuxV2KuxV2KuxV2KuxV2Kux&#xA;V2KuxV2KuxV2KuxV2KuxV2Kvz9zoHUuxV2KuxVPfKfkrXfNM11HpaRcLKL1ru4nlSGKNCaDk7kDc&#xA;9MhkyCPNlGBlyZ3Nouv3P5eWPlNIro6+NWntJtPaxiSGNY0SQlrzjsFAVy/KpBIPwCuY/EBMy6V3&#xA;ttHhrrbz/wA1eU9Z8sajHYaqkYlmhS6t5IZFljkhkqFdHUkEEqcyIZBIWGqUTHmk+TYuxV2Kph5d&#xA;/wCUg0z/AJi4P+Ti5GfIpjzfeWaF2rsVWyyxRLzldY06cmIA+84q1FPDMC0UiyKDQlCGFfoxpUJq&#xA;WuaLpb2yalfQWb3knpWqzyLGZH/lTkRU75KMSeQQZAc3Prmix6tHo8l9AmrTRmWKwaRROyCtWWMn&#xA;kR8J+4+GPCautl4hdNWOv6Lf3t3Y2V7DcXlg3C9t43DPE1SKOo+zupxMCBZUSBR+RS7FXYq7FXYq&#xA;7FXYq7FUvu/MOh2ep22lXV/BDqV4K2to7hZZASR8Cnc7g5IQJF1sgyF0mGRS7FVG8vLSytZbu8mS&#xA;2tYFLzTysERFHUszUAGEAnYIJpbYahY6jZxXthcR3VnOvKG4hYOjDpUMKjriQQaKg2oazr+i6Jar&#xA;d6vew2Fs7iJJrhxGpcgsFBPeik4YwMuSmQHN8GZvnVOxVxBFKjruMVdir6N8lm+852dheWQSfy3P&#xA;Zp5e8w6COEMlqRH8VzA4H92CquoJ6lgN65rslQJB+rmC5kLl7uSPH5Jh9C07y/LZP9Uj1m4uLu9W&#xA;+b1DZEuI3MRHp+pLGVjbiK0Fa77R/M7k+Xcnwdq80j/MG81Ty1pOtT6wI47HVbRvL/l3y9xV3jt7&#xA;ZjHHdyyUNOKqZEAJ+J8niAkRXTcljkJiDfuD5/zYOI4KSCQKgdT4Yq7FUw8u/wDKQaZ/zFwf8nFy&#xA;M+RTHm+8s0LtXYq8u/5yP/8AJZz/APMXb/8AEjmVo/raNR9LzHz35D8teUfI2g+aND1C4sPMVytp&#xA;J6Qn3f1ofUd0UAOvFh1rTt1pmViyynMxI2aJwEYgjmzrz7r2kfoT8vb3zXoI1jVL4QurfWHtfQnk&#xA;jgaViqKeYZ2BKHbamUYoG5CJoNs5Co2LTXVdT8sx/nzo+nyaEJddnsmaLW/rDr6aiGduP1YKUY8Y&#xA;yvItX4vYZCMZeETe3cyJHiDbdIvy81fTtG/ML80NU1KZbextJxJPM3QATS9B3JOwA3J2yzNEmEAG&#xA;OMgSkSzXyn+Zy635a1HzRe6XLpOg2KySQ3M0gd50iBLskYVelKdTVth0yjJg4ZCINlsjksXWyQ6B&#xA;+c/mbXr20bTfIt9Jol5cLDHqzSsEETSem0rAQMlE35Ukpsd8snpoxG8hbGOYnkNk48//AJu2HlbV&#xA;LfQrHTp9d8w3Kh0021NCqmtOTBZG5MASFVDtuabVhi05kLJoMsmXhNcyhPJf5zw+YdSu9DvtGm0X&#xA;zJBG8ltpdy5rOY0LlA7RxlWoK0KdN98OTTcIsG4ohms1VFNfy6/M/TvOeiX+qfVm039Gysl1DI4k&#xA;KoED+pUKu32u3bI5sBgQOdsseQSFpNpv556PP5IvfN1/p8lhZwXJs7K3MiyS3U3ANxTZQOu57UPh&#xA;k5aU8XCCwGccNofR/wA8rhte07S/M3li78uR6uQun3c7s6uzEKoZWihKglgCd6VFdt8MtLsTE3Sj&#xA;NvRFKvm/87J9A85XXla18uXGr3kUMb231WUl5ZJEV+HpLE7KArH4hy6dMGPTcUeK6WeapVTBPzD8&#xA;0al/ysbyN5il0S5XUPqSzHQl5NceoZpQIfsK3L/YV9svwwHBKN7XzaskjxA0zzyZ+dh1vzWvlfWt&#xA;AuPL2qTKxto53L8mVS5Vg8UDLVVJXY1yjJpuGPEDYbYZrNEUr+afzjaw8xT+XvLWgXPmfUrJC+or&#xA;bMUSGnVarHMWYVAO1Kmla7YIae43I8ITLNRoC0O35neWvNv5X6/qlxpbzJYxNHquhyymNqkjiBMq&#xA;1APZgtajph8GUMgF/FHiCUSUT5b88+UfLf5RaZ5gNmdK0jg62mmRyG4kMrSyfu0dwhdnZWck079h&#xA;gnilLIRzKYzEYW8o/OD8yNd82+TrJbjyrdaPpLXsdxaapO7Mk37mVUVQYox8SuWBDHpmXp8IhL6r&#xA;LRlyGQ5U8bzMcZOPJumpqnm3RtOd0jS7vYIS8iiRfjkUbo2zV/lPXIZJVEllAWQH1l5t8u+UdL8m&#xA;i2u9LtZNNh+CW2jWC2Uo5Z5fSMpqlCWkAjbnUbb5qcc5GWx3c+cQI8nzFF5Dm1nXbWw8sXMGpHUZ&#xA;JXhghaV2tbcEFGupHiiC/C2+3bpuBm08XhFy2pwuCzQeneQvy/8AzP8AKHmbVdE0e9023luraK5k&#xA;vblXkrBHK8aNGi1UEty2ft4Zi5cuOcQTbdDHKJIDNG038347aG+fz5pi21zxEDPZwrC4cckZZOIJ&#xA;LDoPDKOLHy4S21P+cGK+evye/NbzjrVlcazeaU6wQm3F3a+qlFHKQGSNwNy7U+D7suxajHAbW1zw&#xA;zkd6eTWXlG20rW5IfNs8Viml3aR6lpcrSpcTQ1qzW5jjkDhgNiD3BqBvmWclj09WgRo7vqXSPK3l&#xA;bV/KEdoml2UdqxYJb8Le5SJomdEBMXwSGME/aJb+b4q5qpTkJXbnCIIfHOsWS2OrXtksgmW1uJYR&#xA;KBQOI3K8gB0rSubmJsW64iiq+Xf+Ug0z/mLg/wCTi4J8iseb7yzQu1diry7/AJyP/wDJZz/8xdv/&#xA;AMSOZWj+to1H0vLPM/5d2PkrT/KXnextjqelyJbS6xY3fGRPUlRZPADg9Sor0YDrXMuGYzMoHY9G&#xA;iWPhqTL/AM8tXsNYi/L/AFTT5BNZ3l4ZoJB3VjCaEdiOhHY5TpYkcQLZnN8JRmu/+tQeXf8Atnyf&#xA;9Q13kY/3B9/6ky/vQwLVfIuo+a/NP5kfo6eUXmm3RuIrFCeFz+9kJRlHVwFPD3+eZEcohGF9WowM&#xA;jKnqvkXzj5U82/lRcwax6VjaWNr9Q1uBB6aRJw4LIgA+FWHxLtsajtmJlxyhk2+DfCYlDd5pHql3&#xA;5D8w6NZeSvOS+YtJvbtYzoqkScVeQAoac4xz5faXia9syuEZATKNHvab4SOE2yObWNP8of8AOQ2r&#xA;6p5nZrWw1KzCadfOrvHVkgAYEAmg9J4z4H23yrhM8IEejOxHISV0er2PnP8A5yE0nUfLv+k6fo1m&#xA;Vvr9AQjcVm+IE9RymVB4/LHhMMJEuZW+LICOjFfNeqP+X3mf8wtDiBjt/MVqr6eF2FbiQEgU6BI5&#xA;5h/saZbjj4kYnua5HgMh3pn+ank680D8oPKEAiYJp0ofVOAFVmulMjFqjs5KAn2HhkcGQSyS82WW&#xA;FQCLXRfIOv3Gj3d/+ZN1qksU8TWNndEPKJZXSiemaupZgobbI8U42BCk8MTXqZFpn/rTOrf9spf+&#xA;TcGVy/uB72Y/vT7kP+Y3/k/PI/8AxiX/AJOy4cP9zJGT+8DvOgA/5yT8o0HXTwT995jj/uJe/wDU&#xA;s/7wMH02GLTPzP8ANun6z5ovPKc1zeSTQ3cB4JOryvIvqMelUkDKTt1y8m8cSBxNQ2kQTTJ4/LXl&#xA;PSPy28/XPl/X219r2GL69OQtFkjZ2FGXZi3qknfKuORnGxTZwgRlRtjfm2zun/IvyNfek82m2VxK&#xA;b9EG1JJXCFj+yNitfFhluM/vZDqwmP3YTr8+vzA8m+ZfIWmQaHqUVzP9finNqoZZEjSCZCXRgCtG&#xA;cDf6Mr0uKUZmx0ZZ8kZR2eK+Wbfy9c6zDB5gu5bDS5FkWW8hQytE5Q+mxQAsyh6cgN6ZnTJA25uN&#xA;Gr3ZzbeW9D8uag+qeV/Of17U9KhS9uY47D03W1cqJTE00kkTSosgJRqfPkKZQZmQqUdj5tnCBuC+&#xA;mtH1fSPM/ly2vbiCFrXUIBctZztFMBETVTIByTam/gds1comMqc4ESDxH80/OEvkofo/yFPFZ6Tq&#xA;7evK9vD8MUsZo620hX0vSl5A0WtCGpQGmZ2DHx7z5hxcs+HaPJ7BrlncT6XaGKxe6t5LdF1M23pf&#xA;WpbdOLfVk9RoqrISefx/ZqAKtUYcTvzciQ2eP/nbeSeYvN+i+X9LstRXVYZwkUdzF6NrIgPLlByZ&#xA;eXE7MwADUG5oMzNMOGJJqnHzGyAHpXmWW3TTPPF/ZapBMx0Joo7G3lDtbSWcN0XYqp+GplUdB9nM&#xA;aHOII6/qbpcjv0YJ+VXmuPzxCP8AH7wXcOkELYyXMFIZpZT9q4k4+hyiACoppXlUgsAcvz4+D6Or&#xA;VilxfV0er+cPMem+U/Kl7fIirHYxR8ba3MSOiyv6atGjlV2+JlX9riQMxMcDOVOROQiHzVJ5P8va&#xA;tfPeeavOn1DXLu3TUriA6e8pEEsQmj5NG8aep6BVyiqadBU5s/EIFRjty5uFwA8zuxSOHRofO9rD&#xA;os8l1pkd7AttcyrweRQ6guV/Z5NUgeGW78O/NhtxbPuPNG7N2KoPVtF0nWLM2Wq2kV7aFg5gnUOh&#xA;ZehofDJRkQbCCAebrnRtJutL/RNxaRTaYY1iNm6BovTSnFeJ2ovEUxEiDfVaFUl/+BvJ5tbS0OjW&#xA;htbCRpbKH0l4RSOQzNGKfCSRXbJeLLnaOAdzBNA8mecNU/OC686+YLaOwsdME1ppESuGaaMB4Uko&#xA;CSFKOzHlTcigy+eSIx8I6tUYEz4i9IsdA0Wwvbu+srKG3vL9ud7cRoFeVqk1dh9rdjmMZkii3CIC&#xA;DTyR5QQ3xTR7VP0mGXUOMSj1wzcyJKfa+LfD4stt+SOAdyjov5e+SdDvRfaVo1raXigqlwiVdQRQ&#xA;8WavGo22wyyykKJRHHEcgjte8seXvMFulvrWnwX8UTcohMgYoT1Kt1WvemRhMx5FMog812h+W9B0&#xA;G2a20awgsIXPJ1gQJyI7sRux+eMpmXMrGIHJR1byh5X1i8ivdU0q1vbuBQkU88Su6qrFgASOgZic&#xA;MckgKBUwB5hM7m2trq3ktrqJJ7eVSksMqh0ZT1DK1QR88iDTIhjlj+WP5fWN6l7a6BZR3Ubc4pPS&#xA;DcHBqGUNVVIPQgbdssOeZFWwGOI6JwmgaKmsSa0llCurSp6Ul8EHrMgAHEv1p8IyHGaroy4RdtXf&#xA;l7Q7zU7bVbqwgm1KzFLW7dA0sYBJ+BjuNycRMgVeymIu3XHl7Q7nV4NZuLCCXVbVPTt75kBljT4v&#xA;hV+oHxt9+ImQKvZeEXaG17yb5V8wMj61pVtfSRCkcssYLqOtA4o1PauGGSUeRRKAPMOsfJnlOx0q&#xA;fSbTSbWHTbr/AHqtVjXhL/xk/m+nE5JE2TuogAKpFRaDokWkfoaOxgXSeDR/UPTX0eDEll4EcaEn&#xA;Bxm7vdPCKpJYvyr/AC5ijaNfLlgUZg55Qq5qARsWqQN+mT8efeWHhR7nxNm7da9MsvKurQ+VdC0z&#xA;RLOWa686cTqWrJG0iRQC44Jaq6iiKGQSTVO+w6DMYzHESf4W4RNADq941Pyx5V8u2dhp2heVrPVd&#xA;cEPCwgdIUYxwcQ9xczOPsozqSd2LNt1zAjOUiSTQcoxA2A3YDrX5ma5FrK+VfzZ8t2cOhX1R9Yt1&#xA;kIRRULNG5klD8SRXgQ6+FfhN8cIrixndqlkN1MbPV9c0bUrs6fd6ZqtzZ2EMRjvLeI0L2zJXnEBH&#xA;I3rjiAvsTSjUOYsZAWCHIlE9C8gfWdS0bTdO84aDDqGi+XBqcCR2l/qLzxajbTlvUmeOQubdvhrU&#xA;kg1r2FczhEiYmia7uTjWQLGwerw22nx+TNak1lEi0KaC6Zkik9Z004xEuhlirypykKBCeKkAZiEn&#xA;iFc/0uQB6TfJ5r5d/Mzzhq2qy6D+XHlewbyxp59INcB0X0+hZpFkSMGTcgUYnrvvmTPDEC5k8RaY&#xA;5CTURszVPJflHzVoGp6fd+XLXRNbaP0LuJY4Wlt5SOUUkU0Q+KOvxKVpXcEdRlHiSgQbsNnAJDlR&#xA;eBaroOrX/kO9vNcsZbLVfKT21lDdyo0f1m0lcxrAeQHN4DQqw/YND0GbCMwJ0DtJxDEmO/Rhnl3/&#xA;AJSDTP8AmLg/5OLl0+Ra4833lmhdq7FXYq7FXYq7FXYq7FXYq7FXYq7FXYq7FXYq7FXYq7FXYq7F&#xA;XYq/P3OgdS+gP+cebPVf0MdaPmOey8u6ZNONS0yVUFsWCCQMszkhECuGk2H41zX6si6rcuXpwau9&#xA;nfmn+dOiS6hay+TNSvTrVkGiS6tlUWcqyOvKOWOZT6vHhVSFpv1xwaY16hsuXML9PNlv5g6X5582&#xA;flxotnbaRa3Gs3yxPqpnESi0ZoaOUWUko/J6VX4l3yrFKEJk3s2ZBKURtu7yt+ZOk61pw8n+Yr6f&#xA;yz5qtAlrdUcQNI8VBygmcMoMgp8J+Lf4a9cZ4TE8URxRRHICOE7FmFtYJpt9YeWLawDeWI9PnkaW&#xA;cSThJoZoRFEZZWdd1kdgrb/DtsMpJsGV+q20CtujzjWvNmlwaHP+WnlC6/xDr2sG5tmkjSOO1tUu&#xA;izXG8KrGEUO5ULXj3O2ZMcZvjlsA0mYrhG5KbaAnnvyn+T2oRHSrax8w6aJPqccCxOs6Jx5TFITR&#xA;pPTVjvuaVPhkJ8E8g32KY8UYct2N/lJ+c/lhDcL5o1S7XXL8x+tfX1Gtvg5BY4vSULCi8i3xAD4u&#xA;uWajTS/hGzDFmHXmlP8AzkVpmt2cUF3deYLjUdL1K6MmmadwVbeFAjM/J0NHK81EZIrxrv4z0kgd&#xA;qohGoB73jvl3/lINM/5i4P8Ak4uZk+RcaPN95ZoXauxV2KuxV2KuxV2KuxV2KuxV2KuxV2KuxV2K&#xA;uxV2KuxV2KuxV2Kvz9zoHUvZ/wAq/OH5cWP5e6j5a8z3Vw6X96k81ikTjny4ALG8LM7L+4UvXj1o&#xA;Ad64WfHMzEouTinERosF/MjSdIg8yXNx5cs7qHQpFjkieeJ40V5EDuiVROKoW40PcHcjMjDI8Pq5&#xA;tWQC9uT1z8rfys87DyjaXVj5vbRrHUzHqItrSD1HqUovKR3Sm1OSgEHvXMPPnjxbxum/FilXOk0v&#xA;P+caNH1LUrrUdU168uLu8kee4eOOGLlLI3JiBRgBUn4R0yI1pAoBkdMCbJTiX8kRLoK6BJ5s1l9H&#xA;Q7WZkh402HAn0+RQU2QniPDIfmd74RbLwdqs0lOmf8436fo2qRano3mG7tb22Ja2lkhhm4MVK1oQ&#xA;qnr4ZKWsJFEMRp6Ngsb/ADe/K7znb+Uzqeo+ajrljovKRIrqJo5gJ3VD8YeX1CKinLoOmW6fPEyo&#xA;Rq2GXFKrJunnn5X6T5e/TpvfNthdS6LDA8ienDI8byCgCsFRiw4k9CPGuZGeRqondpxgXvyZN+cP&#xA;nDyFq/lPy/pHli8naPSuYitJI3PFKBAskkrBwUC/Ds1QeoyvT45iRMurZlnEgAPMfLv/ACkGmf8A&#xA;MXB/ycXMmfItEeb7yzQu1dirsVdirsVdirsVdirsVdirsVdirsVdirsVdirsVdirsVdirsVfn7nQ&#xA;OpZR+WvmnTPKvm6117ULaS7SzSUwwRcQTLJGY1JLEAAcya75VmgZxoM8chE29ps/+cqPL8knG+0K&#xA;6hhOxaGWOY0PX4WEI/HMI6E9C5I1Q7kg83fmX5LfyPPD5b8x6ymuKY10+25zWqxR+qC6sIBHCVEX&#xA;JdyxrlmPDLj9QFMZZI8OxNvIJfNHmaZg02r3sjAUBe4lY0+lszOCPc4/Ee9Z/iHX/wDq53f/ACPk&#xA;/wCaseAdyOIqkXmnzPCSYdXvYy3XhcyrX7mx4I9yeI972ryz+ankS18q6W+teYNXutZjMcupWLma&#xA;7WWSGUSBT9ZDxhSVBHpup/VmFPBMyNAU5Ecsa3JtMrr/AJyq0JZqWug3UsFftyyxxPT/AFVEo/4b&#xA;IDQnvZHVDueG+fNd07X/ADdqWs6dDJb2t/IJxDKFDq7Ivq14kj+85UPfM7FExiAXGnIE2ED5d/5S&#xA;DTP+YuD/AJOLkp8ixjzfeWaF2rsVdirsVdirsVdirsVdirsVdirsVdirsVdirsVdirsVdirsVdir&#xA;8/c6B1LsVdirsVdirsVdirsVdirsVTDy7/ykGmf8xcH/ACcXIz5FMeb7yzQu1dirsVdirsVdirsV&#xA;dirsVdirsVdirsVdirsVdirsVdirsVdirsVfn7nQOpdirsVdirsVdirsVdirsVdiqYeXf+Ug0z/m&#xA;Lg/5OLkZ8imPN95ZoXauxV2KuxV2KuxV2KuxV2KuxV2KuxV2KuxV2KuxV2KuxV2KuxV2KviX/lV3&#xA;5jf9S3qH/SPJ/TN348O8Os8KXc7/AJVd+Y3/AFLeof8ASPJ/THx4d4Xwpdzv+VXfmN/1Leof9I8n&#xA;9MfHh3hfCl3O/wCVXfmN/wBS3qH/AEjyf0x8eHeF8KXc7/lV35jf9S3qH/SPJ/THx4d4Xwpdzv8A&#xA;lV35jf8AUt6h/wBI8n9MfHh3hfCl3O/5Vd+Y3/Ut6h/0jyf0x8eHeF8KXc7/AJVd+Y3/AFLeof8A&#xA;SPJ/THx4d4Xwpdzv+VXfmN/1Leof9I8n9MfHh3hfCl3O/wCVXfmN/wBS3qH/AEjyf0x8eHeF8KXc&#xA;jtD/ACz/ADCh1vT5ZfLt+kUdzC7u0DgBVkBJO3bBLNCjuGUccr5PszNK7F2KuxV2KuxV2KuxV2Ku&#xA;xV2KuxV2KuxV2KuxV2KuxV2KuxV2KuxV/9k=</xmpGImg:image>
                  </rdf:Description>
               </rdf:li>
            </rdf:Alt>
         </xmp:Thumbnails>
         <xmpMM:InstanceID>xmp.iid:9b5efb82-3abb-488a-b0a8-1bc0596b4fb4</xmpMM:InstanceID>
         <xmpMM:DocumentID>xmp.did:9b5efb82-3abb-488a-b0a8-1bc0596b4fb4</xmpMM:DocumentID>
         <xmpMM:OriginalDocumentID>uuid:5D20892493BFDB11914A8590D31508C8</xmpMM:OriginalDocumentID>
         <xmpMM:RenditionClass>default</xmpMM:RenditionClass>
         <xmpMM:VersionID>1</xmpMM:VersionID>
         <xmpMM:DerivedFrom>
            <rdf:Description>
               <stRef:instanceID>uuid:5a45f1d3-441b-de43-8e24-0f0ebd49cb20</stRef:instanceID>
               <stRef:documentID>xmp.did:48b77480-e98d-49d5-ae48-fe98756bb9e0</stRef:documentID>
               <stRef:originalDocumentID>uuid:5D20892493BFDB11914A8590D31508C8</stRef:originalDocumentID>
               <stRef:versionID>1</stRef:versionID>
               <stRef:renditionClass>default</stRef:renditionClass>
            </rdf:Description>
         </xmpMM:DerivedFrom>
         <xmpMM:History>
            <rdf:Seq>
               <rdf:li>
                  <rdf:Description>
                     <stEvt:action>saved</stEvt:action>
                     <stEvt:instanceID>xmp.iid:01f49444-900c-48d5-a5b9-561f78779e55</stEvt:instanceID>
                     <stEvt:when>2023-10-25T11:53:17+02:00</stEvt:when>
                     <stEvt:softwareAgent>Adobe Illustrator 27.9 (Macintosh)</stEvt:softwareAgent>
                     <stEvt:changed>/</stEvt:changed>
                  </rdf:Description>
               </rdf:li>
               <rdf:li>
                  <rdf:Description>
                     <stEvt:action>saved</stEvt:action>
                     <stEvt:instanceID>xmp.iid:9b5efb82-3abb-488a-b0a8-1bc0596b4fb4</stEvt:instanceID>
                     <stEvt:when>2024-07-25T09:38:14+02:00</stEvt:when>
                     <stEvt:softwareAgent>Adobe Illustrator 28.5 (Macintosh)</stEvt:softwareAgent>
                     <stEvt:changed>/</stEvt:changed>
                  </rdf:Description>
               </rdf:li>
            </rdf:Seq>
         </xmpMM:History>
         <illustrator:StartupProfile>Print</illustrator:StartupProfile>
         <illustrator:CreatorSubTool>Adobe Illustrator</illustrator:CreatorSubTool>
         <xmpTPg:HasVisibleOverprint>False</xmpTPg:HasVisibleOverprint>
         <xmpTPg:HasVisibleTransparency>False</xmpTPg:HasVisibleTransparency>
         <xmpTPg:NPages>1</xmpTPg:NPages>
         <xmpTPg:MaxPageSize>
            <rdf:Description>
               <stDim:w>127.000000</stDim:w>
               <stDim:h>45.861111</stDim:h>
               <stDim:unit>Millimeters</stDim:unit>
            </rdf:Description>
         </xmpTPg:MaxPageSize>
         <xmpTPg:PlateNames>
            <rdf:Seq>
               <rdf:li>Cyan</rdf:li>
               <rdf:li>Magenta</rdf:li>
               <rdf:li>Yellow</rdf:li>
               <rdf:li>Black</rdf:li>
            </rdf:Seq>
         </xmpTPg:PlateNames>
         <xmpTPg:SwatchGroups>
            <rdf:Seq>
               <rdf:li>
                  <rdf:Description>
                     <xmpG:groupName>Standaardstaalgroep</xmpG:groupName>
                     <xmpG:groupType>0</xmpG:groupType>
                     <xmpG:Colorants>
                        <rdf:Seq>
                           <rdf:li>
                              <rdf:Description>
                                 <xmpG:swatchName>Wit</xmpG:swatchName>
                                 <xmpG:mode>RGB</xmpG:mode>
                                 <xmpG:type>PROCESS</xmpG:type>
                                 <xmpG:red>255</xmpG:red>
                                 <xmpG:green>255</xmpG:green>
                                 <xmpG:blue>255</xmpG:blue>
                              </rdf:Description>
                           </rdf:li>
                           <rdf:li>
                              <rdf:Description>
                                 <xmpG:swatchName>Zwart</xmpG:swatchName>
                                 <xmpG:mode>RGB</xmpG:mode>
                                 <xmpG:type>PROCESS</xmpG:type>
                                 <xmpG:red>30</xmpG:red>
                                 <xmpG:green>30</xmpG:green>
                                 <xmpG:blue>28</xmpG:blue>
                              </rdf:Description>
                           </rdf:li>
                           <rdf:li>
                              <rdf:Description>
                                 <xmpG:swatchName>R=21 G=66 B=115</xmpG:swatchName>
                                 <xmpG:type>PROCESS</xmpG:type>
                                 <xmpG:tint>100.000000</xmpG:tint>
                                 <xmpG:mode>RGB</xmpG:mode>
                                 <xmpG:red>21</xmpG:red>
                                 <xmpG:green>66</xmpG:green>
                                 <xmpG:blue>115</xmpG:blue>
                              </rdf:Description>
                           </rdf:li>
                        </rdf:Seq>
                     </xmpG:Colorants>
                  </rdf:Description>
               </rdf:li>
            </rdf:Seq>
         </xmpTPg:SwatchGroups>
         <pdf:Producer>Adobe PDF library 17.00</pdf:Producer>
         <pdf:Trapped>False</pdf:Trapped>
         <pdfxid:GTS_PDFXVersion>PDF/X-1:2001</pdfxid:GTS_PDFXVersion>
         <pdfx:GTS_PDFXVersion>PDF/X-1:2001</pdfx:GTS_PDFXVersion>
         <pdfx:GTS_PDFXConformance>PDF/X-1a:2001</pdfx:GTS_PDFXConformance>
      </rdf:Description>
   </rdf:RDF>
</x:xmpmeta>
                                                                                                    
                                                                                                    
                                                                                                    
                                                                                                    
                                                                                                    
                                                                                                    
                                                                                                    
                                                                                                    
                                                                                                    
                                                                                                    
                                                                                                    
                                                                                                    
                                                                                                    
                                                                                                    
                                                                                                    
                                                                                                    
                                                                                                    
                                                                                                    
                                                                                                    
                                                                                                    
                                                                                                    
                                                                                                    
                                                                                                    
                                                                    
<?xpacket end="w"?>
  </metadata>
</svg>