<?xml version="1.0" encoding="UTF-8"?>
<svg xmlns="http://www.w3.org/2000/svg" width="229.3055521mm" height="52.9166659mm" version="1.1" viewBox="0 0 650 150">
  <title>LOGO_ORG_NL_RGB_BASIS_BLAUW</title>
<defs>
    <style>
      .cls-1 {
        fill: #154273;
      }

      .cls-1, .cls-2 {
        stroke-width: 0px;
      }

      .cls-2 {
        fill: #fff;
      }
    </style>
  </defs>
  <g id="Beeldmerk">
    <g>
      <rect class="cls-1" x="300" width="50" height="100"/>
      <path class="cls-2" d="M325.8999996,77.3600006h-.8700008v-2.4100037h.8700008v2.4100037ZM329.8299999,66.7200012h-.8700008v-2.4100037h.8700008v2.4100037ZM313.71,62.5600014c-.0699997,0-.5199995,0-.5199995.0900002s.21.0499992.5200005.0999985c.6999998.1199989.9700003.4700012,1.46.4700012.4399996,0,.9000006-.2999992.7200003-.9399986-.0299997-.1100006-.0900002-.0800018-.1099997-.0099983-.0699997.2900009-.4200001.4500008-.79.4500008-.4600019-.0000038-.5500021-.1600037-1.2800016-.1600037ZM308.9200001,64.9700012c.0799999.1100006.8999996,1.1699982-.3599997,1.5800018-.0600004.0199966-.0699997.0699997.0100002.1100006.9300003.3899994,1.3800001-.3300018,1.3800001-.3300018.4699993,1.0800018-.250001,1.6699982-.250001,1.6699982.1000004.1900024.5500002.5199966,1.2200003.6699982.2600002-.1399994.6199999-.4000015.7700005-.8000031,0,0,.1800003.4700012.0200005.9199982,1.8999996.1699982,2.5699997-1.3499985,4.04-1.0699997.04.0100021.0600004-.0199966.0600004-.0599976,0-.9400024-.5699997-2.6500015-2.3900003-3-1.8100004-.3499985-1.3199997-1.0900002-1.3199997-1.0900002.7600002-.0299988,1.1999998.2999992,1.1999998.2999992.1400003-.2299995-.0600004-.4700012-.0600004-.4700012.0699997-.0900002.1099997-.4000015.1099997-.4000015-.8599997,0-1.0799999-.1899986-1.0799999-.1899986-.1300001-.5099983.2200003-1.2299995,1.5-.4599991.3199997-.2799988.29-.7200012.29-.7200012.1000004-.0499992.1599998-.2000008.1599998-.2599983,0-.2099991-1.0199995-.7799988-1.2799997-.8499985-.0600004-.3100014-.46-.75-1.6599998-.5900002-.5699997.0699997-.9799995-.0800018-.79-.4099998.0299997-.0600014-.0699997-.0699997-.1199999-.0099983-.1300001.1300011-.3100004.5.1800003.75.5500002.2799988.5799999.8300018.5900002.9099998.0100002.1199989-.1300001.1300011-.1599998.0099983-.25-.9300003-1.5299997-1.1300011-2.2799997-.6399994.04.5.5799999.8300018.8699999.8300018.1700001,0,.3999996-.1699982.3999996-.4000015,0-.1100006.0600004-.0999985.0900002-.0099983.1199999.3300018-.3699999,1.0200005-1.0900002.5999985-.7399998.7400017-.4399996,1.6599998-.3699999,1.9900017.1300001.6000023-.1599998,1.1899986-.71.920002-.0300002-.0100021-.0599999-.0199966-.0599999.0400009.0099988.3600006.4999986.7900009,1.0899987.4599991ZM313,61.2400017c-.3500004.3899994-.9099998.2999992-1.0500002-.3400002.7200003-.0400009,1.0200005.0299988,1.0500002.3400002ZM335.0699997,62.7200012c-.3699989,0-.7200012-.1599998-.7900009-.4500008-.0200005-.0699997-.0800018-.0999985-.1100006.0099983-.1800003.6399994.2799988.9399986.7200012.9399986.4900017,0,.7599983-.3499985,1.4599991-.4700012.3100014-.0499992.5200005,0,.5200005-.0999985,0-.0900002-.4500008-.0900002-.5200005-.0900002-.7199974.0000038-.8199997.1600037-1.2799988.1600037ZM342.2299995,64.4899979c0-.0599976-.0299988-.0500031-.0600014-.0400009-.5499992.2699966-.8400002-.3099976-.7099991-.9199982.0699997-.3400002.3699989-1.25-.3699989-1.9900017-.7299995.4199982-1.2200012-.2700005-1.0900002-.5999985.0299988-.0900002.0900002-.0999985.0900002.0099983,0,.2299995.2299995.4000015.4000015.4000015.2900009,0,.8300018-.3300018.8699989-.8300018-.75-.4900017-2.0299988-.2900009-2.2799988.6399994-.0299988.1199989-.1699982.1100006-.1599998-.0099983,0-.0800018.0400009-.6300011.5900002-.9099998.5-.25.3199997-.6199989.1800003-.75-.0499992-.0499992-.1599998-.0400009-.1199989.0099983.1899986.3300018-.2200012.4799995-.7799988.4099998-1.2000008-.1599998-1.5900002.2900009-1.6599998.5900002-.2599983.0699997-1.2799988.6399994-1.2799988.8499985,0,.0600014.0600014.2200012.1599998.2599983,0,0-.0200005.4300003.2900009.7200012,1.2700005-.7700005,1.6300011-.0499992,1.5.4599991,0,0-.2299995.1800003-1.0900002.1899986,0,0,.0400009.3100014.1100006.4000015,0,0-.2000008.25-.0600014.4700012,0,0,.4399986-.3300018,1.2000008-.2999992,0,0,.4900017.7399979-1.3199997,1.0899963-1.8100014.3499985-2.3899994,2.0599976-2.3899994,3,0,.0500031.0200005.0699997.0600014.0599976,1.4700012-.2699966,2.1399994,1.25,4.0400009,1.0699997-.1699982-.4499969.0200005-.9199982.0200005-.9199982.1500015.4000015.5099983.6699982.7700005.8000031.6800003-.1500015,1.1199989-.4700012,1.2200012-.6699982,0,0-.7200012-.5899963-.25-1.6699982,0,0,.4500008.7200012,1.3800011.3300018.0800018-.0400009.0600014-.0899963.0099983-.1100006-1.2599983-.4100037-.4399986-1.4700012-.3600006-1.5800018.5899887.3500061,1.0899887-.0799942,1.0899887-.4599991ZM338.1100006,60.9000015c-.1399994.6399994-.7000008.7299995-1.0499992.3400002.0299988-.3100014.3400002-.3800011,1.0499992-.3400002ZM324.7000008,50.2099991c0,.1599998.0699997.2999992.1200008.3800011.1100006.1599998.0900002.25.0400009.2999992s-.1399994.0699997-.2999992-.0400009c-.0799999-.0600014-.2199993-.1199989-.3799992-.1199989-.2700005,0-.4099998.1800003-.4099998.3300018s.1399994.3300018.4099998.3300018c.1599998,0,.2999992-.0699997.3799992-.1199989.1599998-.1100006.25-.0900002.2999992-.0400009s-.0200005.5999985-.0900002,1.0400009c-.4500008.0999985-.6700001.4599991-.6700001.6699982,0,.5499992.5799999.8600006.9300003,1.0499992.3400002-.1800003.9300003-.5.9300003-1.0499992,0-.2099991-.2199993-.5800018-.6700001-.6699982-.0599995-.4300003-.1399994-.9900017-.0900002-1.0400009s.1399994-.0699997.2999992.0400009c.0799999.0600014.2199993.1199989.3799992.1199989.2700005,0,.4099998-.1800003.4099998-.3300018s-.1399994-.3300018-.4099998-.3300018c-.1599998,0-.2999992.0699997-.3799992.1199989-.1599998.1100006-.25.0900002-.2999992.0400009s-.0699997-.1399994.0400009-.2999992c.0599995-.0800018.1200008-.2200012.1200008-.3800011,0-.2700005-.1800003-.4099998-.3299999-.4099998-.1500053,0-.3300037.1399994-.3300037.4099998ZM325.0300007,54.2700005c-.3700008,0-.6700001.2999992-.6700001.6699982s.2999992.6699982.6700001.6699982.6700001-.2999992.6700001-.6699982-.3000011-.6699982-.6700001-.6699982ZM325.0300007,60.6800003c2.6700001,0,4.1700001.5099983,4.1700001.5099983.0100002-1.3499985.0100002-2.0999985.7800007-1.9900017-.4200001-1.1300011,1.3999996-1.5800018,1.3999996-3.0499992,0-.9700012-.6900005-1.0800018-.8899994-1.0800018-.6000004,0-.5100002.3899994-1.0200005.3899994-.0599995,0-.1299992-.0200005-.1299992.0299988,0,.1699982.1399994.4599991.3799992.4599991.3199997,0,.3199997-.3199997.5599995-.3199997.1000004,0,.25.0800018.25.4099998,0,.6300011-.4099998,1.3199997-.8999996,1.8600006-.1100006-.1500015-.2600002-.25-.4500008-.25-.2900009,0-.5400009.2999992-.5400009.6699982,0,.1399994.0200005.2400017.0699997.3499985-.1599998.0900002-.3099995.1399994-.4099998.1399994-.2199993,0-.5499992-.0900002-.5499992-.5699997,0-1.0699997,1.4300003-2.0099983,1.4300003-3.3699989,0-.6500015-.4300003-1.2900009-1.3400002-1.2900009-.9699993,0-.7900009.8800011-1.6299992.8800011-.0400009,0-.0699997.0099983-.0699997.0499992,0,.0600014.1499996.5499992.5799999.5499992.4599991,0,.5900002-.7999992,1.0100002-.7999992.1499996,0,.3799992.0900002.3799992.6300011,0,.4199982-.2099991,1.1100006-.5100002,1.7599983-.1100006-.1100006-.2600002-.1899986-.4200001-.1899986-.3600006,0-.6200008.3499985-.6200008.7599983,0,.2599983.1000004.5200005.2800007.6800003-.2099991.2700005-.4300003.4900017-.7199993.4900017-.5799999,0-.8299999-.3300018-.8299999-.6899986,0-.3899994.7099991-.5299988.7099991-1.1300011,0-.4099998-.2700005-.6399994-.5200005-.6399994-.2800007,0-.4200001.1800003-.4500008.1800003s-.1700001-.1800003-.4500008-.1800003c-.2600002,0-.5200005.2299995-.5200005.6399994,0,.5999985.7099991.75.7099991,1.1300011,0,.3600006-.2600002.6899986-.8299999.6899986-.2900009,0-.5100002-.2200012-.7199993-.4900017.1800003-.1699982.2800007-.4199982.2800007-.6800003,0-.4199982-.2600002-.7599983-.6200008-.7599983-.1700001,0-.3099995.0800018-.4200001.1899986-.2999992-.6599998-.5100002-1.3400002-.5100002-1.7599983,0-.5400009.2299995-.6300011.3799992-.6300011.4099998,0,.5400009.7999992,1.0100002.7999992.4300003,0,.5799999-.4900017.5799999-.5499992,0-.0299988-.0300007-.0499992-.0699997-.0499992-.8400002,0-.6599998-.8800011-1.6299992-.8800011-.8999996,0-1.3400002.6399994-1.3400002,1.2900009,0,1.3600006,1.4300003,2.2999992,1.4300003,3.3699989,0,.4799995-.3299999.5699997-.5499992.5699997-.1100006,0-.25-.0499992-.4099998-.1399994.0499992-.1199989.0699997-.2099991.0699997-.3499985,0-.3699989-.25-.6699982-.5400009-.6699982-.1800003,0-.3299999.0999985-.4400005.25-.4899998-.5400009-.8999996-1.2299995-.8999996-1.8600006,0-.3199997.1499996-.4099998.25-.4099998.2299995,0,.2399998.3199997.5599995.3199997.2399998,0,.3799992-.2900009.3799992-.4599991,0-.0499992-.0699997-.0299988-.1299992-.0299988-.5100002,0-.4200001-.3899994-1.0200005-.3899994-.2000008,0-.8899994.1100006-.8899994,1.0800018,0,1.4799995,1.8199997,1.9199982,1.3999996,3.0499992.7700005-.1100006.7600002.6399994.7800007,1.9900017-.0099964,0,1.4900036-.5099983,4.1600037-.5099983ZM320.1399994,62.6699982c-.7299995.1599998-1.25.3100014-1.4799995.3800011.0100002-.3199997.1299992-.6199989.4200001-.6800003.0400009-.0099983.0499992-.0600014.0100002-.0800018-.6499996-.4300003-.9899998.3899994-1,.4199982-.2299995-.0200005-.5799999.0499992-.5799999.3600006,0,.9300003-2.1199999,1.4399986-2.6099997,1.5200005.8699999.3300018,1.2300005,1.4300003,1.2300005,1.4300003.6299992-.6299973,1.3600006-1.1800003,1.5300007-1.1800003s.2299995.2099991.2399998.3300018c0,.0400009.0400009.0500031.0699997.0199966.3299999-.4899979.1700001-.5999985.1399994-.75-.0200005-.1100006.0100002-.5400009.4899998-.4900017v6.1899986l-.25.0500031c-.1100006.0199966-1.0200005-.75-2.0499992-1.4700012-1.04-.7200012-1.5900002-.2900009-2.7700005.3499985-1.5500002.8399963-3.1099997.0800018-3.1099997.0800018-1.3299999.9499969-1.79,3.7099991-1.79,3.7099991-.2700005.1100006-.71.2300034-1.1199999.2300034-1.02,0-1.1999998-.6200027-1.1999998-.9800034,0-1.5699997,1.9700003-2.2399979,1.9700003-3.7900009,0-.3799973-.1700001-1.9000015-2.0599999-1.9000015h-1.6900001c-.71,0-.8800001-.5100021-.98-.6999969-.04-.0800018-.1099999-.0299988-.0799999.0299988.05.1299973-.0799999.3300018-.0799999.7200012,0,.6299973.3699999,1.0100021,1.0599999,1.0100021.3099999,0,.6100001-.0899963.6999998-.1500015.0599999-.0400009.0999999.0199966.0700002.0599976-.3000002.3499985-.3200002,1.0100021-.1999998,1.1600037.0300002.0400009.0700002.0299988.0700002,0,.1700001-.6600037.79-1.2900009,1.6300001-1.2900009,1.0299997,0,1.02.8700027,1.02,1.0800018,0,1.2600021-2.21,2.1800003-2.21,3.9199982,0,1.7600021,1.8600001,2.1299973,2.9299998,1.8600006-.0600004,1.7600021-2.0799999,2.3600006-2.1400003,1.0999985,0-.0599976-.0500002-.0699997-.0799999.0100021-.25.6200027-.1500001,1.1699982.6300001,1.3399963.0500002.0100021.0300002.0400009-.02.0800018-.7800002.4899979-.3600001,2.4300003-.3200002,3,.0599999.8199997-.7600002.7200012-.8299999.6999969-.0300002-.0100021-.0700002,0-.0100002.0699997.5799999.7099991,1.3000002.0599976,1.3000002.0599976.54.1699982.21.6299973-.1599998.8700027-.0599999.0400009-.0500002.0800018.0100002.0800018.0799999.0100021.9200001.0800018,1.0700002-.5899963.3700004.4400024.9199996.2799988,1.0300002.2200012.1599998-.0800018.9499998-.3700027,1.0200005.5100021,0,.0599976.04.0199966.0699997-.0100021.5900002-.75-.04-1.2099991-.3999996-1.2600021.0299997-.0400009.5-.4400024.9300003.1100006.0299997.0400009.0600004.0500031.0600004-.0299988.0500002-.9499969-.7200003-1.0299988-1.2200003-.6200027-.0200005-.0999985-.1899996-.6299973.5600004-.6100006.0200005,0,.0500002-.0299988.0200005-.0599976-.5799999-.6200027-1.0600004-.0599976-1.1800003.0800018-.2600002.3099976-.9099998.1800003-.9700003.1800003.1999998-3.2900009,3.1000004-2.1200027,3.5-3.7200012.0200005-.0800018.0600004-.0500031.0600004-.0199966.1099997.3899994,1.0900002.4400024,1.2699995-.3199997.0100002-.0500031,0-.0800018-.0299997-.0500031-.8400002.8399963-2.7300005-1.7799988-.1499996-3.9100037,2.1999998-1.8099976,4.170001-.8000031,4.920001-.2099991.0400009.2600021-.1200008.3499985-.2199993.3799973-.0400009.0100021-.0499992.0400009.0100002.0699997.2099991.0800018.5.0500031.6399994-.1399994.4699993.3300018.0699997.75-.1200008.8600006-.0499992.0299988-.0300007.0599976.0100002.0699997.4300003.0800018.7900009-.3600006.8099995-.6200027l.0699997.0400009v1.8700027c0,2.6600037,3.0699997,3.0299988,6.4400005,5.2799988,3.3699989-2.2600021,6.4300003-2.6200027,6.4300003-5.2799988v-1.8700027l.0699997-.0400009c.0200005.25.3700008.6999969.8100014.6200027.0400009-.0100021.0600014-.0400009.0099983-.0699997-.1899986-.1200027-.6000004-.5299988-.1199989-.8600006.1399994.1999969.4300003.2200012.6399994.1399994.0600014-.0199966.0499992-.0599976.0099983-.0699997-.0999985-.0299988-.2599983-.1200027-.2200012-.3799973.75-.5999985,2.7200012-1.6100006,4.920002.2099991,2.5800018,2.1299973.6899986,4.7399979-.1500015,3.9100037-.0400009-.0400009-.0400009,0-.0299988.0500031.1800003.7699966,1.1599998.7099991,1.2700005.3199997.0099983-.0299988.0499992-.0599976.0600014.0199966.4000015,1.5999985,3.2900009.4300003,3.5,3.7200012-.0600014.0100021-.7099991.1299973-.9700012-.1800003-.1100006-.1299973-.5900002-.6999969-1.1800003-.0800018-.0400009.0400009,0,.0599976.0200005.0599976.75-.0199966.5900002.5100021.5600014.6100006-.5-.4100037-1.2700005-.3300018-1.2200012.6200027,0,.0699997.0299988.0699997.0600014.0299988.4300003-.5500031.9000015-.1500015.9300003-.1100006-.3499985.0500031-.9900017.5100021-.4000015,1.2600021.0299988.0299988.0600014.0699997.0699997.0100021.0800018-.8799973.8600006-.5999985,1.0200005-.5100021.1100006.0599976.6599998.2200012,1.0299988-.2200012.1500015.6699982.9900017.5999985,1.0699997.5899963.0600014,0,.0600014-.0400009.0099983-.0800018-.3600006-.2399979-.7000008-.6999969-.1599998-.8700027,0,0,.7200012.6500015,1.2999992-.0599976.0499992-.0599976.0200005-.0800018-.0099983-.0699997-.0699997.0199966-.8899994.1200027-.8300018-.6999969.0400009-.5699997.4599991-2.5100021-.3199997-3-.0499992-.0299988-.0699997-.0599976-.0200005-.0800018.7799988-.1699982.8800011-.7200012.6300011-1.3399963-.0299988-.0800018-.0800018-.0599976-.0800018-.0100021-.0600014,1.2600021-2.0699997.6600037-2.1399994-1.0999985,1.0800018.2799988,2.9300003-.0999985,2.9300003-1.8600006,0-1.7300034-2.2099991-2.6600037-2.2099991-3.9199982,0-.2099991-.0099983-1.0800018,1.0200005-1.0800018.8400002,0,1.4599991.6299973,1.6300011,1.2900009.0099983.0299988.0400009.0400009.0699997,0,.1199989-.1600037.0999985-.8099976-.2000008-1.1600037-.0299988-.0299988,0-.0999985.0699997-.0599976.0900002.0599976.3899994.1500015.7000008.1500015.6899986,0,1.0600014-.3799973,1.0600014-1.0100021,0-.3899994-.1399994-.5899963-.0800018-.7200012.0299988-.0599976-.0499992-.0999985-.0800018-.0299988-.0999985.1999969-.2799988.6999969-.9799995.6999969h-1.6899986c-1.8899994,0-2.0600014,1.5299988-2.0600014,1.9000015,0,1.5500031,1.9700012,2.2200012,1.9700012,3.7900009,0,.3700027-.1899986.9800034-1.2000008.9800034-.4199982,0-.8600006-.1200027-1.1199989-.2300034,0,0-.4500008-2.75-1.7900009-3.7099991,0,0-1.5600014.7600021-3.1100006-.0800018-1.1800003-.6399994-1.7400017-1.0699997-2.7799988-.3499985-1.0400009.7200012-1.9400005,1.4899979-2.0499992,1.4700012l-.25-.0500031v-6.1899986c.4799995-.0499992.5100002.3800011.4899998.4900017-.0300007.1399994-.1800003.2600021.1400013.75.0299988.0400009.0600014.0199966.0699997-.0199966.0099983-.1200027.0800018-.3300018.2400017-.3300018s.9000015.5500031,1.5299988,1.1800003c0,0,.3600006-1.0899963,1.2299995-1.4300003-.4900017-.0800018-2.6100006-.5900002-2.6100006-1.5200005,0-.3100014-.3499985-.3800011-.5799999-.3600006-.0100002-.0299988-.3600006-.8499985-1-.4199982-.0300007.0200005-.0300007.0699997.0100002.0800018.2900009.0699997.4099998.3600006.4200001.6800003-.6200008-.1899986-3.25-.9300003-6.3700008-.9300003-1.5200005,0-2.9099998.1800003-4.0200005.3800011v2.1399994h-.8700008v-1.9700012h-.0000019M314.3800001,84.6500015c-.2300005-.090004-.3800001-.2399979-.3800001-.5500031v-1.3300018c-.3800001-.1299973-1.4200001-.5299988-3.5100002-.5299988-1.7299995,0-2.2700005.3899994-2.3000002.5299988l-.4599996,2.5300064s.7000003-.6399994,3.2100005-.4800034c3.0200005.1900024,6.1499996,1.9800034,6.1499996.0699997v-1.1200027c-2.3600006.0100021-2.71.7700043-2.71.8800049ZM332.9700012,83.7799988v1.1200027c0,1.9000015,3.1300011.1200027,6.1500015-.0699997,2.5099983-.1600037,3.2099991.4800034,3.2099991.4800034l-.4599991-2.5400009c-.0200005-.1399994-.5699997-.5299988-2.2999992-.5299988-2.079998,0-3.1199989.4000015-3.5099983.5299988v1.3300018c0,.3000031-.1500015.4499969-.3800011.5500031.0099945-.1100082-.340004-.8700104-2.7100029-.8700104ZM325.0300007,82.6299973c4.8700008,0,9.8099995.25,10.4499989.9899979.0499992.0599976.0699997,0,.0699997-.0500031v-2.5800018c0-.75-5.1000004-1.1900024-10.5299988-1.1900024s-10.5299997.4400024-10.5299997,1.1900024v2.5800018c0,.0400009.0200005.0999985.0699997.0500031.6699991-.7299957,5.6099997-.9899979,10.4700003-.9899979ZM320.6900005,70.4700012l-.4899998-.1299973-.0400009.0599976-.5699997-.25h.5100002c.0499992,0,.0499992-.0299988.0300007-.0500031-.2299995-.2300034-.4400005-.4300003-.4400005-.4300003,0,0,.2299995.0899963.5599995.2099991.0400009.0100021.0499992-.0100021.0300007-.0400009-.1599998-.2300034-.3799992-.5500031-.3799992-.5500031,0,0,.4599991.3099976.5499992.3700027.0300007.0199966.0499992,0,.0400009-.0299988-.1200008-.3000031-.2600002-.6500015-.2600002-.6500015l.5.4800034c.0200005.0199966.0499992.0100021.0400009-.0199966-.0499992-.2300034-.1399994-.6500015-.1399994-.6500015l.3700008.5400009c.0200005.0299988.0499992.0199966.0499992-.0100021,0-.1100006.0100002-.5899963.0100002-.5899963,0,0,.1599998.3600006.2299995.5400009.0200005.0400009.0400009.0400009.0599995-.0100021.0200005-.0599976.1900005-.4599991.1900005-.4599991l.0200005.6200027-.0799999.0199966-.1000004.7399979c.7299995-.1699982,1.6499996-1.4300003,2.3500004-1.4300003.8400002,0,1.1399994.9800034,2.6800003.4800034.3899994.5800018.5300007,1.0800018.6800003,1.7699966.6000004.5599976,1.4300003.3700027,1.4300003-.2200012,0-.8000031-.8700008-.9499969-.8700008-1.7900009,0-.3700027.2600002-.9100037.9699993-.9100037.3799992,0,.9300003.1600037,1.25.1600037.3799992,0,.4599991-.2699966.5-.3899994.0300007-.0800018.1399994-.0599976.1299992.0100021-.0100002.0800018.0400009.1900024.0400009.3700027,0,.5299988-.7700005.5999985-.8600006.5299988-.0400009-.0299988-.0699997.0100021-.0400009.0400009.1200008.0899963.0900002.4100037-.0499992.6100006-.0200005.0199966-.0400009.0199966-.0400009,0-.0799999-.3799973-.5300007-.8499985-.9200001-.8499985-.1399994,0-.4300003.0800018-.4300003.4199982,0,.4700012.9500008.9100037.9500008,1.8899994,0,1.0199966-1.0100002,1.2699966-2.0300007,1.0100021.0300007.9700012,1.4799995,1.5400009,1.5100002.8499985,0-.0500031.0300007-.0199966.0400009,0,.2099991.3000031.1200008.5199966-.1599998.6399994.25.1100006.2999992.6200027.3700008.9300003.1100006.4599991.5900002.1999969.6200008.1900024.0300007-.0199966.0400009,0,.0200005.0299988-.1800003.4700012-.6700001.2900009-.6700001.2900009-.25.1800003.0499992.3399963.2800007.4100037.0300007.0100021.0300007.0299988.0100002.0500031-.1700001.0599976-.5300007.1800003-.7099991-.1299973-.1299992.3199997-.3999996.3099976-.5.3099976-.1900005,0-.3099995.1900024-.2700005.4499969,0,.0199966-.0100002.0299988-.0300007.0199966-.4400005-.2900009-.1900005-.6399994-.0100002-.7300034-.0300007-.0199966-.3400002-.1500015-.4699993.2099991-.0100002.0299988-.0300007.0299988-.0400009,0-.1900005-.5199966.2299995-.6699982.5300007-.5400009-.0200005-.0699997-.1800003-.3300018-.5799999-.2399979-.0200005.0100021-.0300007,0-.0200005-.0299988.0699997-.1600037.2600002-.3899994.6299992-.1600037.1900005.1200027.5100002-.0500031.5400009-.0699997-.6499996-1.2900009-1.8999996-.2099991-2.1900005-1.2200012-.0100002-.0199966-.0300007-.0400009-.0499992.0199966-.0699997.2099991-.6200008.2300034-.7199993-.1900024-.0100002-.0299988,0-.0400009.0300007-.0199966.0799999.0800018.25.1500015.4799995-.1699982.1499996-.2200012.1700001-.5100021.1700001-.6999969,0-.7799988-.7800007-2.0999985-2-2.0999985-.7700005,0-1.6000004.3000031-2.2199993.75l.5699997.1299973c-.0499992.5800018-.6100006.9199982-1.1200008.7699966l.0900002-.6600037c-.0900002.0299988-.3099995.1100006-.4300003.2799988-.0100002.0100021-.0300007.0100021-.0300007-.0100021-.1000004-.3799973.2099991-.5699997.2999992-.6100006q.0100002-.0100021-.0100002-.0100021c-.2800007-.0100021-.4300003.1900024-.4799995.2600021-.0100002.0100021-.0200005.0100021-.0200005,0,.0299969-.0799866-.0200043-.269989.1099968-.4099884ZM322.3999996,74.9499969c-.2199993.2699966-.4099998.0100021-.7000008.0100021-.2700005,0-.3199997.2300034-.3199997.3199997,0,.0199966-.0100002.0199966-.0200005.0100021-.3099995-.4199982.0400009-.6500015.2399998-.6800003-.0300007-.0299988-.3299999-.2300034-.5200005.0500031-.0100002.0199966-.0300007.0100021-.0300007-.0100021-.0100002-.5199966.3999996-.5599976.6800003-.3300018.0499992-.1999969-.0799999-.3300018-.2999992-.3399963-.0300007,0-.0300007-.0199966-.0200005-.0299988.0900002-.0999985.1800003-.1399994.2700005-.1399994.2900009,0,.3299999.3700027.5200005.3700027.2800007,0,.6900005-.3799973.7199993-.4199982-.0100002-.0199966-.2800007-.7600021-.2299995-1.1999969,0-.0199966-.0100002-.0199966-.0200005-.0100021-.1399994.0800018-.4799995.0699997-.4799995-.3499985,0-.0299988.0100002-.0400009.0300007-.0100021.1499996.2099991.3999996-.0299988.5200005-.1699982.1299992-.1500015.8500004-1.1900024,1.7999992-1.1900024.2099991,0,.4799995.1200027.7000008.2699966-.3299999.4000015,0,.7799988.2399998.7300034.0300007-.0100021.0300007.0199966.0100002.0299988-1.2600002.4700012-1.8199997.6600037-1.8199997,1.7200012,0,.5500031.1900005.8600006.5100002.7799988.0200005-.0100021.0300007,0,.0100002.0199966-.1200008.1399994-.25.1900024-.3600006.1900024-.2600002,0-.3099995-.1399994-.4500008-.1399994-.1399994,0-.6100006.2799988-.6100006.5100021,0,.0899963.0599995.2099991.2199993.3099976.0100002.0100021,0,.0199966,0,.0199966-.1399975-.0000076-.5099983.0299988-.5899982-.3200073ZM325.7099991,64.6999969c-.3899994-.0199966-.6499996.0599976-.6299992.1900024.1900005.1999969.4400005.1800003.6299992-.1900024ZM324.2600002,65.6699982c.2800007-.0699997.5799999-.0400009.6200008-.0299988s.0400009.0800018-.0100002.0899963c-.5799999.0699997-.6100006.3399963-.9799995.3399963-.2399998,0-.5100002-.25-.4099998-.6100006.0100002-.0500031.0499992-.0500031.0599995,0,.039999.1600113.2699986.3300095.7199993.2100067ZM316.7299995,78.5299988c.3799992.4899979.75.0299988,1.2600002.0299988.25,0,.5499992.0800018.6000004.5800018,0,.0299988.0200005.0299988.0499992,0,.5499992-.75-.0799999-1.1699982-.4400005-1.2300034.0799999-.0699997.6100006-.4000015.9599991.0899963.0200005.0299988.0599995.0199966.0599995-.0199966,0-.9499969-.7099991-1.0199966-1.2299995-.6100006-.1000004-.3700027.1800003-.6100006.5400009-.6100006.0400009,0,.0599995-.0299988.0400009-.0500031-.6399994-.6800003-1.1100006.1800003-1.2199993.3099976-.25.3399963-1.1599998-.3000031-1.5299997-.6800003,0,0,.8000002-.8399963.8000002-1.6100006,0-.0500031-.0100002-.1100006-.0100002-.1399994,0-.0199966.0100002-.0299988.0300007-.0199966.0799999.0500031.1900005.0800018.2999992.0800018.1800003,0,.5300007-.0599976.5300007-.7099991,0-.0500031-.0200005-.0500031-.0400009-.0199966-.1000004.1399994-.2000008.1699982-.2800007.1699982-.6499996,0-2-2.1600037-3.6000004-2.1600037-.4200001,0-1.21.3000031-1.6000004.7300034.1899996.1100006.2299995.3499985.21.5199966-.0299997.2699966-.25.4100037-.4700003.4700012-.04.0100021-.04.0400009,0,.0599976.8100004.3099976,2.2700005.8600006,2.6099997,1.1500015.3900003.3399963.3199997.9800034.0900002,1.8700027-.2200003.8499985-.6899996.7399979-.8699999.7099991-.0299997,0-.0299997.0100021-.0200005.0299988.21.2600021.46.3499985.6800003.3499985.4200001,0,.5799999-.2600021.79-.2600021.3599997,0,1.1300001.5199966,1.1300001.9199982,0,.2200012-.1700001.4300003-.3999996.5699997-.0100002.0100021-.0100002.0299988.0100002.0299988.170001.030014.8800011.0900116,1.0200005-.5499878ZM334.3600006,79.0800018c.0200005,0,.0299988-.0199966.0099983-.0299988-.2200012-.1500015-.4000015-.3499985-.4000015-.5699997,0-.4000015.7599983-.9199982,1.1300011-.9199982.2200012,0,.3699989.2600021.7900009.2600021.2200012,0,.4700012-.0899963.6800003-.3499985.0200005-.0199966.0099983-.0400009-.0200005-.0299988-.1699982.0299988-.6500015.1399994-.8699989-.7099991-.2299995-.8899994-.3100014-1.5299988.0900002-1.8700027.3300018-.2900009,1.7999992-.8399963,2.6100006-1.1500015.0400009-.0199966.0400009-.0500031,0-.0599976-.2200012-.0599976-.4399986-.1999969-.4700012-.4700012-.0200005-.1699982.0200005-.4000015.2099991-.5199966-.4000015-.4300003-1.1899986-.7300034-1.6100006-.7300034-1.5999985,0-2.9500008,2.1600037-3.5999985,2.1600037-.0800018,0-.1899986-.0299988-.2799988-.1699982-.0200005-.0299988-.0400009-.0299988-.0400009.0199966,0,.6500015.3499985.7099991.5299988.7099991.0999985,0,.2200012-.0299988.2999992-.0800018.0200005-.0100021.0299988,0,.0299988.0199966,0,.0299988-.0099983.0899963-.0099983.1399994,0,.7699966.7999992,1.6100006.7999992,1.6100006-.3600006.3799973-1.2700005,1.0100021-1.5299988.6800003-.1100006-.1399994-.5800018-.9899979-1.2199993-.3099976-.0200005.0299988-.0100002.0500031.0400009.0500031.3600006,0,.6400013.2399979.539999.6100006-.5200005-.4100037-1.2299995-.3399963-1.2299995.6100006,0,.0400009.0400009.0500031.0599995.0199966.3400002-.4899979.8799992-.1600037.9500008-.0899963-.3600006.0500031-.9799995.4800034-.4400005,1.2300034.0200005.0299988.0400009.0299988.0499992,0,.0599995-.4899979.3600006-.5800018.5999985-.5800018.5,0,.8699989.4599991,1.2599983-.0299988.1600037.6399841.8700027.5799866,1.0400047.5499878ZM321.4500008,66.6100006c-.0499992.0699997-.2199993,0-.2800007-.0299988-.0100002-.0100021-.0200005,0-.0100002.0100021.0400009.0899963.2000008.3600006.4400005.3600006.1100006,0,.2700005-.0599976.3099995-.1399994,0,0,.9400005.3099976,1.3999996.4300003-.1800003.2399979-.2900009.5299988-.3199997.8399963-.3700008-.2300034-1.8700008-1.0299988-1.8700008-1.0299988l-.4599991.6399994c-.0799999.0999985-.4500008-.1699982-.3700008-.2699966l.3500004-.4899979c-.1200008-.1200027-.3999996-.0500031-.4799995-.0199966-.0100002,0-.0200005,0-.0100002-.0199966.0499992-.0999985.2199993-.3899994.6599998-.2600021,0-.2699966-.3999996-.1800003-.5100002-.1500015-.0100002,0-.0200005,0-.0100002-.0100021.1100006-.1200027.4400005-.3799973.7999992-.1600037l.1599998-.2200012-.3199997-.3399963.2000008-.2799988.2299995.3000031,1.7299995-2.3699989c.0400009-.0600014.3899994-.1599998.5100002-.1899986.0100002.1300011.0300007.4900017-.0100002.5499992l-1.7000008,2.3900032.3600006.1200027-.2000008.2799988-.4200001-.1999969-.1799965.2599792ZM327.5200005,66.2200012c0,.2200012.1299992.5400009.4200001.4400024.0100002-.0100021.0300007,0,.0200005.0100021-.0400009.2399979-.4799995.4599991-.6700001.1800003-.1800003.3700027-.1299992.7200012.2399998.9199982.0200005.0100021.0200005.0400009,0,.0599976-.2299995.1600037-.5799999.1299973-.7399998-.1900024-.3099995.2300034-.2700005.7300034-.0799999.9000015,0,0-.8600006.5100021-1.6399994.1500015-.5200005-.25-.9400005-.5699997-1.6100006-.5100021.0900002-.9400024.5599995-1.1800003,1.4200001-1.3199997.6900005-.1100006.7700005-.4300003.6800003-.6699982-.2299995-.0599976-.6599998.1500015-.6599998.1500015-.0799999-.1299973.0300007-.2600021.0300007-.2600021-.0400009-.0500031-.0599995-.2200012-.0599995-.2200012.4799995,0,.5699997-.1100006.5699997-.1100006.0900002-.5-.4200001-.5500031-.8099995-.2799988-.1800003-.1600037-.1499996-.3700027-.1499996-.3700027-.0499992-.0299988-.0900002-.1100006-.0900002-.1500015,0-.1200027.5699997-.4400024.7199993-.4800034.0400009-.1699982.2399998-.4000015.8500004-.3399963.0699997-.1599998-.0499992-.75-.1200008-.9000015-.0200005-.0499992.0100002-.0699997.0599995-.0400009.2099991.1300011.4200001.6300011.5699997.6399994,0,0,.6800003-.3600006.7099991-.3400002.0300007.0200005.1299992.7800026.1299992.7800026.0900002.1100006.6200008,0,.8500004.0999985.0599995.0299988.0599995.0699997,0,.0800018-.1700001.0299988-.7199993.2699966-.8099995.4199982.3199997.4700012.1700001,1.1600037.1700001,1.3500061Z"/>
    </g>
  </g>
  <g id="Woordmerk">
    <g>
      <path class="cls-1" d="M362.5371094,64.7724609v-9.8398438h2.8496094c1.2197266,0,2.1347656.2451172,2.7451172.734375.609375.4902344.9150391,1.1601562.9150391,2.0107422,0,.4697266-.0732422.8896484-.2177734,1.2597656s-.3525391.6845703-.6220703.9453125c-.2705078.2597656-.5908203.4697266-.9599609.6298828l2.609375,4.2597656h-2.0693359l-2.2050781-3.7802734h-1.2900391v3.7802734h-1.7548828ZM364.2763672,59.5976562h1.1103516c.5595703,0,1.0048828-.1376953,1.3349609-.4130859.3300781-.2744141.4951172-.6923828.4951172-1.2519531,0-.5302734-.1523438-.9277344-.4580078-1.1923828-.3046875-.2646484-.7871094-.3974609-1.4472656-.3974609h-1.0351562v3.2548828Z"/>
      <path class="cls-1" d="M371.7822266,56.1621094c-.2998047,0-.5400391-.0849609-.7197266-.2548828s-.2705078-.3994141-.2705078-.6894531c0-.3007812.0908203-.5380859.2705078-.7128906s.4199219-.2626953.7197266-.2626953c.3203125,0,.5625.0878906.7275391.2626953s.2480469.4121094.2480469.7128906c0,.2900391-.0830078.5195312-.2480469.6894531s-.4072266.2548828-.7275391.2548828ZM370.9570312,64.7724609v-7.3945312l1.6650391-.1054688v7.5h-1.6650391Z"/>
      <path class="cls-1" d="M373.6621094,67.6972656l-.1503906-1.3349609c.3994141-.1005859.6904297-.2734375.8701172-.5185547.1796875-.2460938.2695312-.5898438.2695312-1.03125v-7.4345703l1.6650391-.1054688v7.5214844c0,.6113281-.1171875,1.1230469-.3525391,1.5351562-.234375.4101562-.5527344.7236328-.9521484.9394531-.4003906.2158203-.8505859.3583984-1.3496094.4287109ZM375.4765625,56.1621094c-.2998047,0-.5400391-.0849609-.7197266-.2548828s-.2705078-.3994141-.2705078-.6894531c0-.3007812.0908203-.5380859.2705078-.7128906s.4199219-.2626953.7197266-.2626953c.3203125,0,.5625.0878906.7275391.2626953s.2480469.4121094.2480469.7128906c0,.2900391-.0830078.5195312-.2480469.6894531s-.4072266.2548828-.7275391.2548828Z"/>
      <path class="cls-1" d="M378.3173828,64.7724609v-10.4248047l1.6650391-.0898438v5.7744141h.6152344l2.1601562-2.6542969h1.9199219l-2.6103516,3.1044922,2.8056641,4.2900391h-1.9804688l-2.2050781-3.4199219h-.7050781v3.4199219h-1.6650391Z"/>
      <path class="cls-1" d="M388.0302734,64.9072266c-.4404297,0-.8300781-.0175781-1.1699219-.0527344-.3408203-.0351562-.6601562-.0869141-.9599609-.1572266v-1.4697266c.359375.0996094.7167969.1699219,1.0722656.2099609.3544922.0400391.7070312.0595703,1.0576172.0595703.5097656,0,.875-.0742188,1.0947266-.2226562.2197266-.1494141.3300781-.3417969.3300781-.578125,0-.2021484-.0800781-.3710938-.2402344-.5078125s-.4404297-.2597656-.8398438-.3710938l-.8701172-.2724609c-.5097656-.1513672-.9023438-.3867188-1.1777344-.7050781-.2744141-.3173828-.4121094-.7392578-.4121094-1.2646484,0-.4541016.1220703-.8554688.3671875-1.2041016s.5947266-.6240234,1.0507812-.8251953c.4541016-.2021484,1.0019531-.3037109,1.6416016-.3037109.3603516,0,.6875.0126953.9833984.0380859.2939453.0244141.5722656.0625.8320312.1123047l-.1201172,1.4101562c-.2998047-.0498047-.5830078-.0849609-.8476562-.1054688-.2646484-.0195312-.5576172-.0302734-.8769531-.0302734-.5,0-.8554688.0703125-1.0654297.2089844s-.3144531.3164062-.3144531.5322266c0,.2021484.0673828.3642578.2021484.4853516s.3769531.2265625.7275391.3183594l.8701172.2265625c.5800781.1621094,1.0146484.4042969,1.3046875.7275391s.4355469.7421875.4355469,1.2568359c0,.5048828-.1259766.9443359-.375,1.3183594-.2509766.3740234-.6025391.6611328-1.0576172.8632812s-1.0029297.3027344-1.6425781.3027344Z"/>
      <path class="cls-1" d="M395.7763672,64.9072266c-.6904297,0-1.2929688-.1367188-1.8076172-.4111328-.515625-.2744141-.9179688-.6865234-1.2080078-1.2353516s-.4345703-1.2324219-.4345703-2.0507812.1669922-1.5244141.5019531-2.1181641c.3349609-.5947266.7822266-1.0507812,1.3427734-1.3701172.5595703-.3193359,1.1650391-.4794922,1.8154297-.4794922.6894531,0,1.2919922.1376953,1.8066406.4121094.515625.2744141.9179688.6855469,1.2080078,1.2353516.2900391.5488281.4345703,1.2324219.4345703,2.0507812s-.1669922,1.5244141-.5019531,2.1181641-.7832031,1.0507812-1.3427734,1.3701172c-.5605469.3193359-1.1650391.4785156-1.8144531.4785156ZM395.8808594,63.4375c.3603516,0,.6777344-.0947266.9521484-.2841797.2753906-.1894531.4951172-.4628906.6601562-.8222656s.2480469-.8027344.2480469-1.3310547c0-.7773438-.1679688-1.3525391-.5029297-1.7265625s-.7871094-.5605469-1.3574219-.5605469c-.3505859,0-.6650391.0947266-.9453125.2832031-.2792969.1894531-.5019531.4638672-.6669922.8232422-.1650391.3583984-.2480469.8017578-.2480469,1.3300781,0,.7783203.1679688,1.3535156.5029297,1.7275391s.7871094.5605469,1.3574219.5605469Z"/>
      <path class="cls-1" d="M402.3740234,64.7724609l-2.3544922-7.3945312h1.9052734l1.6201172,6.0625h.0898438l1.6494141-6.0625h1.7255859l-2.3701172,7.3945312h-2.265625Z"/>
      <path class="cls-1" d="M411.2226562,64.9072266c-1.1298828,0-2.0224609-.3105469-2.6777344-.9335938-.6542969-.6220703-.9824219-1.5761719-.9824219-2.8613281,0-.8525391.1455078-1.5654297.4355469-2.1376953s.6875-1.0039062,1.1923828-1.2949219,1.0625-.4375,1.671875-.4375c.6103516,0,1.1357422.1181641,1.5751953.3544922.4404297.2353516.7773438.5771484,1.0126953,1.0234375s.3525391.9912109.3525391,1.6328125c0,.2207031-.0029297.4345703-.0078125.640625-.0048828.2050781-.0175781.3984375-.0371094.5791016h-4.5605469c.0400391.453125.1523438.828125.3378906,1.1259766.1845703.296875.4375.5185547.7578125.6650391.3193359.1455078.6943359.21875,1.125.21875.4199219,0,.7998047-.0302734,1.1396484-.0908203s.6904297-.15625,1.0498047-.2871094v1.3818359c-.3798828.140625-.75.2460938-1.109375.3164062-.3603516.0693359-.7851562.1044922-1.2753906.1044922ZM409.1826172,60.2578125h2.9853516c0-.5449219-.125-.9658203-.375-1.2636719s-.5957031-.4462891-1.0351562-.4462891c-.4003906,0-.7451172.1513672-1.0351562.453125-.2900391.3037109-.4697266.7216797-.5400391,1.2568359Z"/>
      <path class="cls-1" d="M415.4619141,64.7724609v-7.3945312l1.6494141-.0751953v.8398438c.2607422-.3300781.515625-.5625.765625-.6972656.25-.1357422.5097656-.203125.7792969-.203125.1806641,0,.3330078.0078125.4580078.0224609.125.015625.2626953.0429688.4121094.0830078l-.1201172,1.6044922c-.1591797-.0498047-.3066406-.0820312-.4423828-.0976562-.1347656-.0146484-.2822266-.0224609-.4423828-.0224609-.2402344,0-.4677734.0429688-.6826172.1279297s-.4521484.2275391-.7119141.4277344v5.3847656h-1.6650391Z"/>
      <path class="cls-1" d="M420.6269531,64.7724609v-10.4248047l1.6650391-.0898438v3.5400391c.3105469-.1904297.6152344-.3300781.9150391-.4199219.2998047-.0908203.6503906-.1357422,1.0498047-.1357422.8007812,0,1.4228516.2236328,1.8681641.6708984.4443359.4462891.6669922,1.1015625.6669922,1.9648438v4.8945312h-1.6650391v-4.5976562c0-.4423828-.1171875-.7871094-.3525391-1.0332031-.234375-.2460938-.5771484-.3691406-1.0273438-.3691406-.2802734,0-.5244141.0205078-.734375.0595703-.2099609.0400391-.4501953.1103516-.7207031.2099609v5.7304688h-1.6650391Z"/>
      <path class="cls-1" d="M432.0234375,64.9072266c-1.1308594,0-2.0234375-.3105469-2.6777344-.9335938-.6552734-.6220703-.9824219-1.5761719-.9824219-2.8613281,0-.8525391.1445312-1.5654297.4345703-2.1376953s.6875-1.0039062,1.1923828-1.2949219,1.0625-.4375,1.6728516-.4375c.609375,0,1.1347656.1181641,1.5751953.3544922.4394531.2353516.7773438.5771484,1.0126953,1.0234375.234375.4462891.3515625.9912109.3515625,1.6328125,0,.2207031-.0019531.4345703-.0068359.640625-.0048828.2050781-.0175781.3984375-.0380859.5791016h-4.5595703c.0400391.453125.1523438.828125.3378906,1.1259766.1845703.296875.4365234.5185547.7568359.6650391.3203125.1455078.6953125.21875,1.125.21875.4199219,0,.7998047-.0302734,1.140625-.0908203.3398438-.0605469.6894531-.15625,1.0498047-.2871094v1.3818359c-.3798828.140625-.75.2460938-1.1103516.3164062-.359375.0693359-.7851562.1044922-1.2744141.1044922ZM429.9833984,60.2578125h2.984375c0-.5449219-.125-.9658203-.375-1.2636719s-.5947266-.4462891-1.0351562-.4462891c-.3994141,0-.7451172.1513672-1.0341797.453125-.2910156.3037109-.4707031.7216797-.5400391,1.2568359Z"/>
      <path class="cls-1" d="M437.0732422,56.1621094c-.2998047,0-.5400391-.0849609-.7197266-.2548828s-.2705078-.3994141-.2705078-.6894531c0-.3007812.0908203-.5380859.2705078-.7128906s.4199219-.2626953.7197266-.2626953c.3203125,0,.5625.0878906.7275391.2626953s.2480469.4121094.2480469.7128906c0,.2900391-.0830078.5195312-.2480469.6894531s-.4072266.2548828-.7275391.2548828ZM436.2480469,64.7724609v-7.3945312l1.6650391-.1054688v7.5h-1.6650391Z"/>
      <path class="cls-1" d="M442.6591797,64.9072266c-.6201172,0-1.1650391-.1357422-1.6347656-.4091797-.4707031-.2724609-.8378906-.6787109-1.1025391-1.21875-.265625-.5400391-.3974609-1.2099609-.3974609-2.0078125,0-.8476562.1669922-1.5722656.5019531-2.1728516.3349609-.6015625.7949219-1.0605469,1.3798828-1.3789062s1.2480469-.4775391,1.9882812-.4775391c.2099609,0,.4023438.0078125.5771484.0224609.1748047.015625.3378906.0478516.4873047.0976562v-3.0146484l1.6650391-.0898438v10.5146484h-1.6044922v-.4501953c-.2607422.1806641-.5527344.3222656-.8779297.4277344-.3251953.1044922-.6523438.1572266-.9824219.1572266ZM443.09375,63.4521484c.2802734,0,.5224609-.0273438.7275391-.0820312s.4228516-.1425781.6533203-.2626953v-4.3496094c-.1806641-.0302734-.3583984-.0527344-.5332031-.0673828-.1748047-.015625-.3623047-.0234375-.5625-.0234375-.4296875,0-.8076172.0966797-1.1318359.2900391-.3251953.1933594-.578125.4746094-.7578125.8457031s-.2705078.8203125-.2705078,1.3486328c0,.7929688.1728516,1.3740234.5175781,1.7451172.3457031.3701172.7978516.5556641,1.3574219.5556641Z"/>
    </g>
  </g>
  <metadata><?xpacket begin="﻿" id="W5M0MpCehiHzreSzNTczkc9d"?>
<x:xmpmeta xmlns:x="adobe:ns:meta/" x:xmptk="XMP Core 6.0.0">
   <rdf:RDF xmlns:rdf="http://www.w3.org/1999/02/22-rdf-syntax-ns#">
      <rdf:Description rdf:about=""
            xmlns:dc="http://purl.org/dc/elements/1.1/"
            xmlns:xmp="http://ns.adobe.com/xap/1.0/"
            xmlns:xmpGImg="http://ns.adobe.com/xap/1.0/g/img/"
            xmlns:xmpMM="http://ns.adobe.com/xap/1.0/mm/"
            xmlns:stRef="http://ns.adobe.com/xap/1.0/sType/ResourceRef#"
            xmlns:stEvt="http://ns.adobe.com/xap/1.0/sType/ResourceEvent#"
            xmlns:illustrator="http://ns.adobe.com/illustrator/1.0/"
            xmlns:xmpTPg="http://ns.adobe.com/xap/1.0/t/pg/"
            xmlns:stDim="http://ns.adobe.com/xap/1.0/sType/Dimensions#"
            xmlns:xmpG="http://ns.adobe.com/xap/1.0/g/"
            xmlns:pdf="http://ns.adobe.com/pdf/1.3/"
            xmlns:pdfxid="http://www.npes.org/pdfx/ns/id/"
            xmlns:pdfx="http://ns.adobe.com/pdfx/1.3/">
         <dc:format>image/svg+xml</dc:format>
         <dc:title>
            <rdf:Alt>
               <rdf:li xml:lang="x-default">LOGO_ORG_NL_RGB_BASIS_BLAUW</rdf:li>
            </rdf:Alt>
         </dc:title>
         <xmp:MetadataDate>2024-07-25T09:37:34+02:00</xmp:MetadataDate>
         <xmp:ModifyDate>2024-07-25T09:37:34+02:00</xmp:ModifyDate>
         <xmp:CreateDate>2024-07-25T09:37:34+02:00</xmp:CreateDate>
         <xmp:CreatorTool>Adobe Illustrator 28.5 (Macintosh)</xmp:CreatorTool>
         <xmp:Thumbnails>
            <rdf:Alt>
               <rdf:li>
                  <rdf:Description>
                     <xmpGImg:width>256</xmpGImg:width>
                     <xmpGImg:height>176</xmpGImg:height>
                     <xmpGImg:format>JPEG</xmpGImg:format>
                     <xmpGImg:image>/9j/4AAQSkZJRgABAgEASABIAAD/7QAsUGhvdG9zaG9wIDMuMAA4QklNA+0AAAAAABAASAAAAAEA&#xA;AQBIAAAAAQAB/+4ADkFkb2JlAGTAAAAAAf/bAIQABgQEBAUEBgUFBgkGBQYJCwgGBggLDAoKCwoK&#xA;DBAMDAwMDAwQDA4PEA8ODBMTFBQTExwbGxscHx8fHx8fHx8fHwEHBwcNDA0YEBAYGhURFRofHx8f&#xA;Hx8fHx8fHx8fHx8fHx8fHx8fHx8fHx8fHx8fHx8fHx8fHx8fHx8fHx8fHx8f/8AAEQgAsAEAAwER&#xA;AAIRAQMRAf/EAaIAAAAHAQEBAQEAAAAAAAAAAAQFAwIGAQAHCAkKCwEAAgIDAQEBAQEAAAAAAAAA&#xA;AQACAwQFBgcICQoLEAACAQMDAgQCBgcDBAIGAnMBAgMRBAAFIRIxQVEGE2EicYEUMpGhBxWxQiPB&#xA;UtHhMxZi8CRygvElQzRTkqKyY3PCNUQnk6OzNhdUZHTD0uIIJoMJChgZhJRFRqS0VtNVKBry4/PE&#xA;1OT0ZXWFlaW1xdXl9WZ2hpamtsbW5vY3R1dnd4eXp7fH1+f3OEhYaHiImKi4yNjo+Ck5SVlpeYmZ&#xA;qbnJ2en5KjpKWmp6ipqqusra6voRAAICAQIDBQUEBQYECAMDbQEAAhEDBCESMUEFURNhIgZxgZEy&#xA;obHwFMHR4SNCFVJicvEzJDRDghaSUyWiY7LCB3PSNeJEgxdUkwgJChgZJjZFGidkdFU38qOzwygp&#xA;0+PzhJSktMTU5PRldYWVpbXF1eX1RlZmdoaWprbG1ub2R1dnd4eXp7fH1+f3OEhYaHiImKi4yNjo&#xA;+DlJWWl5iZmpucnZ6fkqOkpaanqKmqq6ytrq+v/aAAwDAQACEQMRAD8A5NnQOpdirsVdirsVdirs&#xA;VdirsVdiqI07/joW3/GVP+JDAeSQ++s0DtXYq7FXYq7FXYq7FXYq7FXYq7FXYq7FXYq7FXYq7FXY&#xA;q7FXYq7FX5+50DqXYq7FXYq7FXYq7FXYq7FXYqiNO/46Ft/xlT/iQwHkkPvrNA7V2KuxV2KuxV2K&#xA;uxV2KuxV2KuxV2KuxV2KuxV2KuxV2KuxV2KuxV+fudA6l2KuxV2KuxV2KuxV2KuxV2KojTv+Ohbf&#xA;8ZU/4kMB5JD76zQO1dirsVdirsVdirsVdirsVdirsVdirsVdirsVdirsVdirsVdirsVfn7nQOpdi&#xA;rsVdirsVdirsVdirsVdiqI07/joW3/GVP+JDAeSQ++s0DtXYq7FXYq7FXYq7FXYq7FXYq7FXYq7F&#xA;XYq7FXYq7FXYq7FXYq7FX5+50DqXYq7FXYq7FXYq7FXYq7FXYqiNO/46Ft/xlT/iQwHkkPvrNA7V&#xA;2KuxV2KuxV2KuxV2KuxV2KuxV2KuxV2KuxV2KuxV2KuxV2KuxV+fudA6l2KuxV2KuxV2KuxV2Kux&#xA;V2KojTv+Ohbf8ZU/4kMB5JD76zQO1dirsVdirsVdirsVdirsVdirsVdirsVdirsVdirsVdirsVdi&#xA;rsVfn7nQOpdirsVdirsVdirsVdirsVdiqI07/joW3/GVP+JDAeSQ++s0DtXYq7FXYq7FXYq7FXYq&#xA;7FXYq7FXYq7FXYq7FXYq7FXYq7FXYq7FX5+50DqXYq7FXYq7FXYq7FXYq7FXYqiNO/46Ft/xlT/i&#xA;QwHkkPvrNA7V2KuxV2KuxV2KuxV2KuxV2KuxV2KuxV2KuxV2KuxV2KuxV2KuxV+fudA6l2KuxV2K&#xA;uxV2KuxV2KuxV2KojTv+Ohbf8ZU/4kMB5JD76zQO1dirsVdirsVdirsVdirsVdirsVdirsVdirsV&#xA;dirsVdirsVdirsVfn7nQOpdirsVdirsVdirsVdirsVdiqI07/joW3/GVP+JDAeSQ++s0DtXYq7FX&#xA;Yq7FXYq7FXYq7FXYq7FXYq7FXYq7FXYq7FXYq7FXYq7FX5+50DqXYq7FXYq7FV/oT+gLj029AsYx&#xA;LxPAuACV5dK0NaY2qzFXYq7FXYqiNO/46Ft/xlT/AIkMB5JD76zQO1dirsVdirsVdirsVdirsVdi&#xA;rsVdirsVdirsVdirsVdirsVdirsVfn7nQOpdirsVdiqdeVfJvmHzTeTWmi2wnkt4zNcO7pFHGgNK&#xA;s8hVeuQnkERuyjAy5M9l0jWpPy2tfKyQSN5jGryWcmkHTYlZaIsu15w6hQHMnOpRt/gFco4hx8X8&#xA;Nd/6G2jw11tgHmjylr3ljUEsNZt/q88sSzwlXSRHjeoDo6FlIqDl8MgkLDVKJjzSfJsXYq7FURp3&#xA;/HQtv+Mqf8SGA8kh99ZoHauxV2KuxVC32raVYPBHfXsFpJdP6Vqk8qRmWT+SMMRybfoMIiTyQSA5&#xA;tW0pdRXTGvYF1J0MqWJlQTtGOriKvMrt1pjwmr6LYulllrei391c2ljf211dWTFLy3gmjkkhYEqV&#xA;lRSWQ8lIo3hhMSNyFEgUbkUuxV2KuxV2KuxV2KuxVBz6zo9vqEGmz31vFqNyOVtZPKizyKK7pGTz&#xA;YfCegyQiautkWOSMyKXYqp3NzbWtvJc3UqQW8Sl5ZpWCIqjqWZqAD54QLUlbZ3tne2sd3ZTx3NrM&#xA;OUU8LrJG6+KupII+WJBHNANqOqazo+kW63Oq31vp9u7iNJrqVIULkFgoaQqOVFJp7YYxJ5BSQOb4&#xA;JzfOqdirsVdir6J8l/WvNNhp9xpdtDJ5Xu7FfLnmLSoIooru1ldKNcxy+nV4lokg5Oacm+Gtc12T&#xA;0k39V2HLh6uXLkUwP5O3Z8vW3l57e+9L9Oyyy6iuoAkWPxBbgwFvT5vFSOgXlX4u/HI/mN+Lbl3d&#xA;WXg7V5pR59e+8u6TrE+tW8MWiS2L+WvKukvHFJdkW4MUd3JMY+SIoVpVAbeq/PJ4qkRXO7LGewN8&#xA;uQfPubBxHYq7FURp3/HQtv8AjKn/ABIYDySH31mgdq7FXl3/ADkf/wCSzn/5i7f/AIkcytH9bRqP&#xA;peZ+cvIuneSPI+g+bfL2sXljrF2LV3gM4CuZofUdo1RVbY9eRIpt88rHlM5mMhs0zgIxBB3Z7531&#xA;bQbqw/Li9806TJqGp6i1u0LRzG3WCedYGlLKoPJeZX4fbMfFEgzETQDbMj02E0v5/Kq/nvp1u+lS&#xA;N5hewaWLVRORGq+nKtDBShbgCta98iBLwjvtbI14nLdjH5V6rYaT5+/NHUtQmW3srS9llnmboqi7&#xA;uPvPYDvlmeJMIANeI1KRLPvKn5oWWu+XNR8zT6fPpeg2Adlu7gqzTLECXKRpU/DSnudhXKMmAxkI&#xA;3ZbY5LF9Eh0L87tR13ULNNN8m6pJpF7cpbx6uVb0VR5BGZHKRugCV+L49vHJy0wiN5C2McxPIFOP&#xA;P/5uaR5Tv7fSIrOfWNduQHj020HxBT0LGjGrUNFCk/LIYtOZi+QZZMojtzKE8l/nTpnmW6vdLfTL&#xA;jTfMFpFJLFpU5+Ob01LFEYhaP4qyjx33yWTTGO92EQzCW3VN/wAvvzL0nznod5q0ML2KWErRXMUz&#xA;BmVVQSepVf2SCfuOQy4TA0yx5BIWkun/AJ5eXp/Jl55svLO4s7C3uvqVrCxVpbmbgH4xgEDod6ns&#xA;fDJnSni4QxGYcNobQvz2tbrXbHSdd0C98v8A6U4jTrm6B4SFzxTqkZCsSByFRXrTrhlpaBIN0iOf&#xA;eiKVfN/53WvlzzbdeWhol1qN5DFG8H1ZgzSySKrhAgUsAFY1O/Tpjj03FHiulnmo1TB/PPnGWP8A&#xA;MvyR5on0m6WY6c0p0iNS9yGdp0WPiQhrU77Zfix+iUb6tc5+oGmdeSfzusfMXmYeW9Q0e60TVZFZ&#xA;reK4PLkUUuysCsbIeKkio3zHyaYxjxA2G2GazVUqeavzos9K8wTeX9F0W88xanZqXv0sweMIAqQS&#xA;qyMStRy+Gg6Vrtjj0xIsmgss1GgLUZ/zI8pecPyu13VJrKWa1tIWj1TSXf05VbYqBIOx6qw8Om1M&#xA;IwyhkAR4glElE+V/Ofk7y3+Umma76D6Zoqo62tkX9eZpGlk/dqx483dgzdvoAwTxylkI5lMZgQvo&#xA;8m/OL8zr7zh5Qs4v8NX2maZ9ejuLbVbgN6MtIZVVFbgqcmV+WznpmXp8AhLmCaaM2TiHJ41mY4yb&#xA;eUtLXVvNOkaYzIi3t5BAWlBZKSSBfiUFC3XoGFfEZHJKoksoiyA+sPM/kryPp/lRbS40O2lsYyI5&#xA;UhijWVY3YtK0LyyLInGrSURy3gDmphkmZc3PlCIHJ8xTeR7i91u1sPLk8Gp/pWaYafawzrNPFAjA&#xA;o10QqJGSh3rToagbZsxloXLanB4LOz0z8vfJP5seSvNOo6NpK6YLq+tRN9YvXkaBoYJeAkQRfGDy&#xA;koA6/RmNlyY5xBNt+OE4mgz9Lb88mhjuU8xeX3hl+KJhHJ6b7ctmC7ig7Zj3i7pNtZO8MK/MD8rf&#xA;zh86azp8mrJpYFtCbf61ZyyLAoqz83jl/eVY0B4L9GXYs+OANW15MU5Hd5RYeTfqmtTWvmaeHTY9&#xA;LuYo9VspZliujCxJdrcFXWSijbjWtR23zLOSx6d7ccQ33fUGieRvJ2o+URZw6JaW0DckiimijdwI&#xA;nIi+sGCUtKejnlJyqd6NmrllkJXbnRhEjk+RvMGnfozXtS031Fm+o3U9t6qCiP6UjJyUVOx41Gbe&#xA;BsAuvkKNKGnf8dC2/wCMqf8AEhhPJQ++s0DtXYq8u/5yP/8AJZz/APMXb/8AEjmVo/raNR9LyjzN&#xA;+X9n5Mg8oecvRl1vQ7iO2fVbO8KyBZHQScBxCD02DHgG6Eb1rTMuGUz4o8i0Sx8NS5hn35z6jZan&#xA;f/lvqFjIJrO71FJYJF6FHeAjMfTAgTB7m3Mb4UTqf/rTOk/9spv+Tc+CP9wfek/3o9zy6/8AJmr+&#xA;Zdf/ADLbTLiX1tN1Ca5bTkJ4XKi7mqCoO7Iqkpsd9u+ZQyCIhfUNBgZGVPZPJ3mjyh5w/KOWHUWh&#xA;0uwgtv0dq0SMsMdseIRXQtsqtUMle+29DmHkhKGTbdyISEobvN4Nb1r8vdf0XTfLXnG280aDeXSw&#xA;jSYXjnZI3kAKUDSLGW5/CVdat2pXMkxGQEyjwlp4jAgA2E9i1jSPLX/ORet33meQWkN5aKum3kwP&#xA;pAukIU8iDQcI3TlWgNRlfCZYQIs7EchtcdT0/wA2f85F6TfeXXW7stKsyL++h3jJVJqtyHUfvkjr&#xA;jwmGEiXVb4sgpivmDVW/L3XvzG8ux1jg1y2V9NG9P9IcfCvhwhuZRX/Iy2EfEEJdzXI8BkO9Hfml&#xA;5SuvL/5S+SoODpFZy+pqgVQxW4uk9Ulq/wArckFdugyODJxZJMssKgE0k8t+WPMdxo17qX5opqrQ&#xA;TxvYWsywifnI6fB6XqCVS5VQarkeOUbAhSeEGrkn2mAf9DM6t/2yl/5NwZXL+4HvZj+9Pud54/8A&#xA;Wg/JX/MJJ/2MY4v7mSz/ALwIbzmir/zkn5SKgAtYAsQOprdip+gYcf8AcS9/6kT/AL0MK0SKWx/M&#xA;7zdYah5sk8n3k95JIlyyJwuEaZ5F5SyMgQFXVlqd65fLeESI8TVHaRs0yVPKXl7Qfy28/T6P5jj8&#xA;xG/hiN3LCI+EciM7dY3kUl/V7eGVeIZTjYps4AIyo2xjzbBOfyT8gXbxvJpdvczfXlT/AC5X4VPa&#xA;oVwPnluM/vZd7XP6Isj/AD/86+Tte/L/AEuDQtUtrt/0hFKtrCwEiRJbzJVotnQAuo+IDK9JjlGZ&#xA;sdGeeYMdnh/lix0O+1mK01vUG0vT5VkDXyxmURyemxiLIvxFTJxBp+HUZ0yQNhZcaIBO7OofKlj5&#xA;V1Iar5e82Wup6npUaX1zbJZF5I7VuPKWNbisLyRhw3AurL12IyjxDIUY0D5tnDwmwX01p9zo3m7y&#xA;3a3V1YrNp2pxLcJZXqRyExtuhdKuteh6mmasgwlz3DnCpB4l+Y/m63/LuVtO8gSWUMGqsZZpYEjl&#xA;ktpImpLErgGqyVWgYnhRgKbcc7Dj8Ted7OLknwbRer30FxN5e0uWK0lneWyhTUb23VGu/qtI2kgj&#xA;YuklZa1PGpoDQciuYgPqPvbzyDyX89tZt9Y1fSPLWitejUoJoootM+rtBaFSPgKBqMXVqL8K8afL&#xA;fL0saBkeTRnNkAPU9ajuIG81ahb6nGYV0UwQWEMxZ7ee2Scu/EbKfjUV67b5ix/hFdW+XX3PNfy2&#xA;802P5kSrb+f/AKhOdIK/Vmmjjiku5bgtwDNRRSIIRwWgbkKg03yc0Dj+i92nHLj+p7HrmqaP5Q8r&#xA;3d3BaLFY6XEJDZWSRIUjd6ckirGnWppUVocw4xM5V3uRIiIfM8nkzTvMN/JqfmLzbaabq+owHUza&#xA;myZXNr6fqJNIsHGFJHiX1CiljvXcnNn4hiKjGwNubhcF7ksN1Kz0az80ra6NfNqWnRSwLFfMhi9V&#xA;uKeowQ7hfU5ca9suiSY77FrIF7PujNE7R2KoDW9B0fXLE2Gr2qXlmzK5gkBK8l6HanTJRkYmwiUQ&#xA;ebV55f0W90b9C3dnHPpXppF9TcVj4RU4Cn+TxFMRMg31UxBFIAeQvJwtdPtRpUP1fSpWn06L4isE&#xA;jMHZk32qwrkvFlvvzY8A7mC+XPK/nLVvzivPOetWQ0zTNPSWy06NmDPMi8olYAb8SGL8iB1FK5fO&#xA;cRj4RuS1RjIz4i9G0vyxoGlX99qGnWMdte6k5kvp0B5SuWLlm3/mcnMaUyRR6NwiByQC/l35JSLU&#xA;YY9Igji1YU1GNOSrMOfqDkFI6NuKdMl40tt+SPDj3KOhflj5C0G/XUNK0aC3vUBEc9XkZK7Er6jP&#xA;xNO4wyzzkKJWOOI5BH+ZPJvlfzNFFHrunRXwgJMLPUOlevF1KsAabiuRhklHkUygJc1/l7yn5b8u&#xA;Wz2+h6fDYRSEGX0l+JyOnNzVmpXapxnklLmVjEDko615G8o65fxahq+lQXt7CqxxzyrVgqMWVevQ&#xA;FjhjllEUCpgDuQmt9YWV/aS2d9BHc2k68JoJVDo6+DK1QcgCQbCSLYvYflF+W9hfRX1roNul1C4k&#xA;icmRwrqeQYK7MtQem2WnUTIq2AxRHRPY/LehR67JryWUa6xNH6Ml6AfUaMADid+nwjK+M1XRlwi7&#xA;6uuvLehXes2utXNlHLqtkpS0u2B5xqa1C7/5ZxEyBXRTEXbV15Y0C61u2124sY5dXs09O2vWB9RE&#xA;+L4Rv/xY334iZAropiLvqg/MfkHyd5kmSfW9KgvLiNeKTsGSTiNwpdCrECvQnJQyyjyKJY4nmHad&#xA;5B8nado91o1lpUMOmXv+9dsOREv+uWJY/ficsibJ3UYwBVI2Ly1oEehfoFLCH9DcDH9RK8ouDEsR&#xA;xNf2jXI8Zu73Twiq6Mfi/Jv8sYlZV8vWxDEMefNzUV6FmJA36DLPzGTvY+DHufF+bp1r0S30K/07&#xA;yvo1hpls82seeBxnvwpZIrT1wi2sZFd3dA8x6gUXpXMcyBkSeUW3hoCucnvt35R8oeVdJsbHTPL3&#xA;6Z1X0fRtbGOivciMgySXLuREIw7gu0mwJAHYZrxklMkk0HLMBEbCywTV/wAynutVTyd+aHlSDS9K&#xA;uiEhnVzS3FOKSpIvJWCnYvGwp94zIjhocWOVlqOTfhkHqWp6VrM0WiTeX9Vkt9KhiENzEFUs1q8X&#xA;wzx1RyZl4qFVkK7nau+YkZDexu3kHai8km8w32m2tl5u0OTVo/L1vqkMQfWZ4pl1CGZ2Ez25m/ew&#xA;V4778SN9ipzM4AfSauunRx+KtxdW9Y0vTbRPLmtvqln+jNNu1noGMLXKWDxF3Eslu0yNxklmZOLN&#xA;RSO9cxJS9Qrc/pcgDY28y0b8y7w6pL5R/LTyhb6loVlVJmLkLOvRpHlfjGvOlAZC3LMmWEVxTlRa&#xA;Bk3qI2ZtH5L8nebdBvrO80H9D6s0XoT2sw5S2jklongYEp6fKpRo/hO4/mGU+JKBBBsNvBGQ5UXg&#xA;F7o99qvkzUpNStXttZ8l+javdlSqz2kkvorBJWg9SFj8B7pt2GZ4kBIVyk4hFjfmGEad/wAdC2/4&#xA;yp/xIZeeTWH31mgdq7FXYq7FXYq7FXYq7FXYq7FXYq7FXYq7FXYq7FXYq7FXYq7FXYq/P3OgdS+g&#xA;/wDnHmHzXPpUd5D5jNv5Z06eZdQ0qWFWAYKJFEc0isERufN+LCnhvXNfqzG6r1Fy9Pdc9kR+a35w&#xA;aFBqllc+T9Ylm1+ySSHlbQR3FnNHM6FoZZJCP5AwMQbw27DBpzXqGycuUX6Tunn5jWfm3zd+Wmhi&#xA;Ly3Dea7qaxNc81UfUfVjqzp6ro8bEkdahd+XbK8JjCZ32H2ssgMojbdGeTPzAsNd0aPyle30vljz&#xA;hZJHaXEDKiy84eILQesrxP6ir9kgkV27NgyYjE8QHFFMMliuRZKml6fpz6P5M+oDUNCntLt5WvR9&#xA;YC/VpITGj8wUPL12pX+XbKuIm5XRZ0BUejBde8z6T5d8u3X5f+Xrlde8x6q1zbWdhZxokNp9bLGR&#xA;SI6oix83biTt34r0yIwMpcctohqlIAcI3KK8kJ5t8pflPqrf4bistf0sP6MSKCLsRBV9dxE7O7U5&#xA;E9OVPh2O0cvDPIN9imFxgdt0m/KT83vLs95fz+atZkj8w6iIUkku4Y7e0VIDJwhheMkfCZWJaQL1&#xA;pvSuWajTyocI2DHFlHU7pT/zkRB5utbMTXnmI3mgajdqdN0qOFUCoEaRvUljRVcRtxCcmJatexyW&#xA;kMSdhuGOovv2eHad/wAdC2/4yp/xIZnHk4wffWaB2rsVdirsVdirsVdirsVdirsVdirsVdirsVdi&#xA;rsVdirsVdirsVdir8/c6B1L2z8pvMf5fW/5aax5f806w1pBe3iTXFugdZSj+mvBDGHdw3oDnxGyn&#xA;MLPCfGDEOTilHhIJebfmDa+UbbzRcR+U52uNFZI5YXPLiplQSFELlpKJyCnn8QaoPTMnEZGPq5tO&#xA;QC9uT2X8r/Iv5sDyrDd6f5ng0yz1Yx3yFke7nClTQES/u05bFuO52qdqZhZ8uPi3F05GKE62KL1b&#xA;/nGqbWdYvdX1TzQ0t7fTNPI0dkI1DMa0AM77Dou+wwR1nCKA+1J01myU/f8AKPzc+gDQW8+3x04d&#xA;vq6+qU6emZvU9Th/k8qfRlf5iN3wi2fhGq4ki0T/AJxvudB1m01jSPNBhvbJy8RlshIpJBWhAnTY&#xA;gkHLJaziFEfaxGno2Clf5r+RvzVXysb7U/MkOqWOjmS4dkV7SdlkCqapH+6fj2ruATvvTJYMuPio&#xA;CrY5YTrc8nk/5b2nku58yqPOFwYNGihklb7YV3ShEbmMrJQrypw+LlQZl5jIR9PNx8Yje/Jn/wCc&#xA;HmTyJeeQdA0TyxrDXsGnyuYIZA7SemlYwshcI6cA/wAHJd16Zj6eExMmQbsso8IALx/Tv+Ohbf8A&#xA;GVP+JDMw8nHD76zQO1dirsVdirsVdirsVdirsVdirsVdirsVdirsVdirsVdirsVdirsVfn7nQOpZ&#xA;R+WuvaD5f84Wes63DJc2VksrrbxIsjPK0ZSP4XKr8LNyqT2yrNAyjQZ45AGy90j/AOcmfy/vSbbU&#xA;NLvkt5NmMkUEqUPXkvqVp8gcwfyUxyIcr8zE8wknnD8xvLMPkm5byt50vP0lEUXTNMghFpHHG0wD&#xA;R8fQR/ghLbmTqNuwyePDLi9UdmM8g4di8gk/Mf8AMGRyzeZdUBP8t5Oo+5XAzM8GHcHH8SXeVv8A&#xA;ysPz/wD9TNq3/Sdc/wDNePgw7h8l8SXeV0f5kfmDG3JfMuqE/wCVeTsPuZyMfBh3BfEl3l7H5W/M&#xA;bypJ5NsJfM/nK7lv3dX1TSbiFbuOQQzBvSK+gXAdFXf1Kb713GYc8MuI8MXIjkHDuU3l/wCcmvIF&#xA;qfq9lpd9JboKKUjgiT/Yr6nT6BkPyUzzIZfmY9zwb8xNZ0PWvOOo6tokTwadeskscMqLG6OY19UF&#xA;ULL/AHgY7HM/DExiAebi5CCbCSad/wAdC2/4yp/xIZM8mIffWaB2rsVdirsVdirsVdirsVdirsVd&#xA;irsVdirsVdirsVdirsVdirsVdir8/c6B1LsVdirsVdirsVdirsVdirsVRGnf8dC2/wCMqf8AEhgP&#xA;JIffWaB2rsVdirsVdirsVdirsVdirsVdirsVdirsVdirsVdirsVdirsVdir8/c6B1LsVdirsVdir&#xA;sVdirsVdirsVRGnf8dC2/wCMqf8AEhgPJIffWaB2rsVdirsVdirsVdirsVdirsVdirsVdirsVdir&#xA;sVdirsVdirsVdir4V/wb5v8A+rHqH/SLP/zRm98SPeHV8B7nf4N83/8AVj1D/pFn/wCaMfEj3heA&#xA;9zv8G+b/APqx6h/0iz/80Y+JHvC8B7nf4N83/wDVj1D/AKRZ/wDmjHxI94XgPc7/AAb5v/6seof9&#xA;Is//ADRj4ke8LwHud/g3zf8A9WPUP+kWf/mjHxI94XgPc7/Bvm//AKseof8ASLP/AM0Y+JHvC8B7&#xA;nf4N83/9WPUP+kWf/mjHxI94XgPc7/Bvm/8A6seof9Is/wDzRj4ke8LwHud/g3zf/wBWPUP+kWf/&#xA;AJox8SPeF4D3K9h5O83LfWzNoeoBRKhJNrNQDkP8nAcka5hIge59x5o3ZuxV2KuxV2KuxV2KuxV2&#xA;KuxV2KuxV2KuxV2KuxV2KuxV2KuxV2Kv/9k=</xmpGImg:image>
                  </rdf:Description>
               </rdf:li>
            </rdf:Alt>
         </xmp:Thumbnails>
         <xmpMM:InstanceID>xmp.iid:cf23aba0-44bd-4802-8e96-26d996361e6e</xmpMM:InstanceID>
         <xmpMM:DocumentID>xmp.did:cf23aba0-44bd-4802-8e96-26d996361e6e</xmpMM:DocumentID>
         <xmpMM:OriginalDocumentID>uuid:5D20892493BFDB11914A8590D31508C8</xmpMM:OriginalDocumentID>
         <xmpMM:RenditionClass>default</xmpMM:RenditionClass>
         <xmpMM:VersionID>1</xmpMM:VersionID>
         <xmpMM:DerivedFrom>
            <rdf:Description>
               <stRef:instanceID>uuid:b165e948-2f34-d643-963b-da489b8e1efb</stRef:instanceID>
               <stRef:documentID>xmp.did:4e011581-dd41-4968-a413-01ac6d49873a</stRef:documentID>
               <stRef:originalDocumentID>uuid:5D20892493BFDB11914A8590D31508C8</stRef:originalDocumentID>
               <stRef:versionID>1</stRef:versionID>
               <stRef:renditionClass>default</stRef:renditionClass>
            </rdf:Description>
         </xmpMM:DerivedFrom>
         <xmpMM:History>
            <rdf:Seq>
               <rdf:li>
                  <rdf:Description>
                     <stEvt:action>saved</stEvt:action>
                     <stEvt:instanceID>xmp.iid:01f49444-900c-48d5-a5b9-561f78779e55</stEvt:instanceID>
                     <stEvt:when>2023-10-25T11:53:17+02:00</stEvt:when>
                     <stEvt:softwareAgent>Adobe Illustrator 27.9 (Macintosh)</stEvt:softwareAgent>
                     <stEvt:changed>/</stEvt:changed>
                  </rdf:Description>
               </rdf:li>
               <rdf:li>
                  <rdf:Description>
                     <stEvt:action>saved</stEvt:action>
                     <stEvt:instanceID>xmp.iid:cf23aba0-44bd-4802-8e96-26d996361e6e</stEvt:instanceID>
                     <stEvt:when>2024-07-25T09:37:34+02:00</stEvt:when>
                     <stEvt:softwareAgent>Adobe Illustrator 28.5 (Macintosh)</stEvt:softwareAgent>
                     <stEvt:changed>/</stEvt:changed>
                  </rdf:Description>
               </rdf:li>
            </rdf:Seq>
         </xmpMM:History>
         <illustrator:StartupProfile>Print</illustrator:StartupProfile>
         <illustrator:CreatorSubTool>Adobe Illustrator</illustrator:CreatorSubTool>
         <xmpTPg:HasVisibleOverprint>False</xmpTPg:HasVisibleOverprint>
         <xmpTPg:HasVisibleTransparency>False</xmpTPg:HasVisibleTransparency>
         <xmpTPg:NPages>1</xmpTPg:NPages>
         <xmpTPg:MaxPageSize>
            <rdf:Description>
               <stDim:w>229.305556</stDim:w>
               <stDim:h>52.916667</stDim:h>
               <stDim:unit>Millimeters</stDim:unit>
            </rdf:Description>
         </xmpTPg:MaxPageSize>
         <xmpTPg:PlateNames>
            <rdf:Seq>
               <rdf:li>Cyan</rdf:li>
               <rdf:li>Magenta</rdf:li>
               <rdf:li>Yellow</rdf:li>
               <rdf:li>Black</rdf:li>
            </rdf:Seq>
         </xmpTPg:PlateNames>
         <xmpTPg:SwatchGroups>
            <rdf:Seq>
               <rdf:li>
                  <rdf:Description>
                     <xmpG:groupName>Standaardstaalgroep</xmpG:groupName>
                     <xmpG:groupType>0</xmpG:groupType>
                     <xmpG:Colorants>
                        <rdf:Seq>
                           <rdf:li>
                              <rdf:Description>
                                 <xmpG:swatchName>Wit</xmpG:swatchName>
                                 <xmpG:mode>RGB</xmpG:mode>
                                 <xmpG:type>PROCESS</xmpG:type>
                                 <xmpG:red>255</xmpG:red>
                                 <xmpG:green>255</xmpG:green>
                                 <xmpG:blue>255</xmpG:blue>
                              </rdf:Description>
                           </rdf:li>
                           <rdf:li>
                              <rdf:Description>
                                 <xmpG:swatchName>Zwart</xmpG:swatchName>
                                 <xmpG:mode>RGB</xmpG:mode>
                                 <xmpG:type>PROCESS</xmpG:type>
                                 <xmpG:red>30</xmpG:red>
                                 <xmpG:green>30</xmpG:green>
                                 <xmpG:blue>28</xmpG:blue>
                              </rdf:Description>
                           </rdf:li>
                           <rdf:li>
                              <rdf:Description>
                                 <xmpG:swatchName>R=21 G=66 B=115</xmpG:swatchName>
                                 <xmpG:type>PROCESS</xmpG:type>
                                 <xmpG:tint>100.000000</xmpG:tint>
                                 <xmpG:mode>RGB</xmpG:mode>
                                 <xmpG:red>21</xmpG:red>
                                 <xmpG:green>66</xmpG:green>
                                 <xmpG:blue>115</xmpG:blue>
                              </rdf:Description>
                           </rdf:li>
                        </rdf:Seq>
                     </xmpG:Colorants>
                  </rdf:Description>
               </rdf:li>
               <rdf:li>
                  <rdf:Description>
                     <xmpG:groupName>Grijswaarden</xmpG:groupName>
                     <xmpG:groupType>1</xmpG:groupType>
                     <xmpG:Colorants>
                        <rdf:Seq>
                           <rdf:li>
                              <rdf:Description>
                                 <xmpG:swatchName>C=0 M=0 Y=0 K=100</xmpG:swatchName>
                                 <xmpG:mode>RGB</xmpG:mode>
                                 <xmpG:type>PROCESS</xmpG:type>
                                 <xmpG:red>30</xmpG:red>
                                 <xmpG:green>30</xmpG:green>
                                 <xmpG:blue>28</xmpG:blue>
                              </rdf:Description>
                           </rdf:li>
                        </rdf:Seq>
                     </xmpG:Colorants>
                  </rdf:Description>
               </rdf:li>
            </rdf:Seq>
         </xmpTPg:SwatchGroups>
         <pdf:Producer>Adobe PDF library 17.00</pdf:Producer>
         <pdf:Trapped>False</pdf:Trapped>
         <pdfxid:GTS_PDFXVersion>PDF/X-1:2001</pdfxid:GTS_PDFXVersion>
         <pdfx:GTS_PDFXVersion>PDF/X-1:2001</pdfx:GTS_PDFXVersion>
         <pdfx:GTS_PDFXConformance>PDF/X-1a:2001</pdfx:GTS_PDFXConformance>
      </rdf:Description>
   </rdf:RDF>
</x:xmpmeta>
                                                                                                    
                                                                                                    
                                                                                                    
                                                                                                    
                                                                                                    
                                                                                                    
                                                                                                    
                                                                                                    
                                                                                                    
                                                                                                    
                                                                                                    
                                                                                                    
                                                                                                    
                                                                                                    
                                                                                                    
                                                                                                    
                                                                                                    
                                                                                                    
                                                                                                    
                                                                                                    
                                                                                                    
                                                                                          
<?xpacket end="w"?>
  </metadata>
</svg>